<?xml version="1.0" standalone="no"?>
<!DOCTYPE svg PUBLIC "-//W3C//DTD SVG 20010904//EN"
 "http://www.w3.org/TR/2001/REC-SVG-20010904/DTD/svg10.dtd">
<svg version="1.0" xmlns="http://www.w3.org/2000/svg"
 width="860.000000pt" height="587.000000pt" viewBox="0 0 860.000000 587.000000"
 preserveAspectRatio="xMidYMid meet">

<g transform="translate(0.000000,587.000000) scale(0.100000,-0.100000)"
fill="#000000" stroke="none">
<path d="M4365 5448 c-84 -7 -260 -45 -295 -63 -14 -7 -39 -15 -56 -18 -31 -6
-149 -56 -284 -119 -186 -88 -438 -255 -540 -357 -68 -68 -120 -135 -120 -154
0 -14 13 -5 53 35 87 90 189 179 288 254 132 100 357 223 254 139 -24 -19 -26
-25 -12 -26 31 -3 35 -4 44 -12 4 -5 3 -8 -2 -6 -5 1 -28 -6 -49 -15 -21 -10
-49 -15 -61 -12 -22 6 -63 -21 -190 -127 -69 -57 -225 -218 -225 -232 0 -2
-14 -25 -32 -50 -21 -30 -39 -45 -54 -45 -26 0 -38 24 -24 50 8 15 6 21 -7 29
-10 5 -27 31 -38 58 -11 26 -35 77 -54 113 -18 36 -49 95 -68 133 -49 97 -70
92 -134 -33 -45 -86 -70 -143 -119 -270 -23 -58 -47 -110 -55 -115 -15 -12
-85 -103 -85 -110 0 -3 -11 -22 -24 -43 -58 -93 -136 -323 -136 -404 0 -51
-19 -71 -80 -82 -3 -1 -9 -4 -15 -7 -5 -4 -22 -9 -37 -13 -15 -3 -32 -15 -38
-26 -9 -17 -31 -298 -24 -308 1 -2 28 20 60 48 81 71 308 217 365 235 18 6 20
4 14 -17 -4 -12 -14 -45 -22 -73 -8 -27 -23 -75 -33 -105 -11 -30 -28 -102
-39 -160 -36 -190 -60 -274 -102 -365 -130 -278 -377 -523 -699 -692 -33 -17
-10 -16 51 2 27 8 73 22 102 31 64 19 289 109 315 125 21 13 73 1 79 -18 5
-15 -189 -215 -264 -271 -35 -27 -97 -65 -136 -85 -78 -40 -219 -81 -250 -73
-15 4 -17 2 -9 -6 17 -17 167 -22 266 -9 49 7 91 10 93 7 7 -6 -192 -230 -244
-276 -55 -48 -126 -90 -151 -90 -11 0 -26 -7 -33 -17 -13 -15 -11 -16 26 -8
22 4 56 6 75 4 19 -2 132 -3 250 -3 179 1 235 5 330 23 139 27 208 46 277 77
53 23 93 22 93 -2 0 -23 -82 -227 -113 -279 -55 -93 -191 -254 -238 -282 -16
-10 -29 -21 -29 -25 0 -13 22 -9 39 6 9 8 41 26 71 42 30 15 101 59 158 96
127 85 135 89 127 55 -4 -14 -2 -28 4 -31 7 -5 11 7 11 33 0 30 7 47 27 69 16
15 54 56 86 91 31 34 57 56 57 49 0 -26 -31 -144 -57 -218 -39 -114 -100 -228
-156 -295 -63 -75 -83 -92 -127 -106 -19 -6 -61 -29 -94 -50 -32 -22 -61 -39
-65 -39 -35 -2 -106 -116 -120 -194 -14 -76 -15 -416 -1 -416 6 0 10 38 10 93
1 185 12 331 31 373 23 54 110 142 181 182 64 36 202 83 238 81 22 -1 110 12
265 40 28 5 81 16 118 25 99 23 102 23 122 -31 29 -75 116 -256 133 -275 20
-24 7 -23 -69 6 -159 60 -274 118 -306 156 -33 38 -73 58 -73 37 0 -19 89 -86
161 -122 87 -44 248 -111 288 -120 17 -4 39 -18 47 -31 15 -22 43 -36 29 -14
-9 14 10 12 95 -11 41 -11 102 -27 134 -35 33 -8 65 -19 72 -24 10 -9 101
-159 139 -230 8 -14 21 -26 29 -28 14 -3 14 0 1 25 -30 59 -64 139 -71 167 -7
29 -7 29 32 22 21 -4 51 -14 67 -23 16 -8 31 -12 34 -9 5 5 -37 25 -99 45 -43
14 -53 25 -61 66 -4 17 -16 71 -27 120 -29 128 -70 374 -75 445 -4 59 1 70 21
50 6 -6 10 -3 10 9 0 13 -6 18 -18 16 -13 -3 -18 2 -18 18 0 31 61 71 97 64
16 -4 22 -4 16 -1 -14 6 -18 44 -5 44 7 0 39 -101 47 -150 8 -52 12 -65 21
-65 5 0 34 -25 64 -56 59 -61 82 -75 187 -115 46 -17 98 -27 158 -31 72 -5 93
-10 107 -26 12 -13 25 -18 40 -14 41 9 125 44 185 76 32 18 59 27 61 21 8 -23
31 -5 97 80 39 49 77 90 85 90 8 1 32 7 53 14 33 12 42 12 65 0 l27 -15 -35 2
c-66 4 -80 0 -89 -25 -5 -13 -17 -26 -26 -30 -10 -3 -15 -12 -11 -21 4 -11 -2
-15 -24 -15 -16 0 -31 -4 -34 -9 -4 -5 11 -9 31 -9 99 0 128 -2 114 -11 -11
-7 -6 -11 20 -15 34 -5 211 -18 239 -17 30 0 80 -10 80 -17 0 -4 -57 -8 -127
-8 -71 -1 -141 -4 -158 -7 -16 -2 -39 -5 -49 -6 -11 0 -16 -4 -13 -8 11 -10
90 -4 98 8 4 7 18 9 35 5 31 -8 102 -8 146 -1 15 3 33 -1 41 -10 8 -8 17 -11
21 -8 3 4 6 -1 6 -10 0 -9 -10 -22 -22 -28 -14 -8 -18 -14 -10 -17 14 -4 17
-62 3 -62 -7 0 -92 -47 -161 -90 -56 -35 -152 -84 -190 -97 -42 -14 -71 -26
-175 -74 -22 -10 -58 -24 -80 -32 -134 -49 -171 -69 -202 -110 -40 -52 -33
-64 10 -15 33 37 114 79 267 138 47 18 114 44 150 58 78 30 219 99 313 154 38
22 70 38 73 36 2 -3 0 -29 -6 -59 -20 -107 -52 -305 -61 -373 -6 -39 -14 -75
-18 -80 -5 -6 -6 -26 -4 -44 l5 -32 88 0 c68 0 89 3 94 15 3 8 8 56 12 107 l7
93 62 70 c107 121 254 325 326 452 26 45 44 51 117 37 l30 -6 -28 -77 c-39
-108 -52 -131 -116 -200 -63 -69 -55 -84 10 -19 60 62 174 196 200 235 11 18
25 33 29 33 4 0 40 -16 81 -35 74 -35 170 -120 191 -169 6 -13 16 -31 24 -40
8 -9 11 -19 8 -23 -4 -3 -3 -11 2 -17 13 -16 25 -136 14 -136 -5 0 -13 3 -17
8 -4 4 -11 8 -14 8 -34 7 -50 18 -45 30 4 11 8 12 19 3 8 -7 18 -9 22 -5 4 4
-1 12 -11 17 -9 6 -17 17 -17 25 0 9 -14 21 -30 27 -17 6 -33 19 -36 29 -5 18
-64 39 -119 43 -16 1 -42 5 -57 9 -15 5 -35 3 -48 -4 -16 -9 -25 -9 -33 -1
-17 17 -26 13 -20 -9 3 -11 9 -20 13 -20 4 0 10 -9 13 -20 6 -23 3 -24 -24 -9
-14 7 -18 16 -14 30 6 19 -9 27 -20 9 -4 -6 -13 -5 -25 3 -23 13 -54 0 -56
-24 -1 -8 -2 -19 -3 -26 0 -7 -8 -10 -16 -7 -11 5 -15 -1 -15 -23 0 -34 -16
-53 -39 -46 -13 4 -14 3 -1 -5 10 -8 18 -8 27 0 10 8 17 6 28 -8 20 -26 18
-33 -5 -27 -15 4 -22 -2 -30 -22 -6 -15 -9 -29 -8 -30 2 -1 12 -7 23 -13 17
-10 18 -11 3 -12 -10 0 -18 -4 -18 -9 0 -5 -21 -32 -46 -60 -44 -49 -46 -53
-28 -66 27 -20 37 -18 31 6 -4 15 2 28 24 46 16 14 29 29 29 35 0 12 52 68 63
68 9 0 -47 -74 -75 -100 -9 -8 -19 -26 -23 -40 -6 -22 -1 -19 41 21 27 26 62
50 77 53 25 6 27 9 15 23 -11 14 -10 15 10 9 15 -5 22 -4 20 5 -2 6 12 16 29
21 18 5 40 20 49 33 21 33 40 32 58 -3 16 -31 12 -63 -12 -99 -16 -25 -9 -45
13 -36 19 7 19 -11 0 -27 -8 -7 -15 -9 -15 -5 0 4 -11 -8 -24 -27 -16 -25 -22
-44 -18 -67 4 -29 7 -32 36 -29 25 2 32 8 34 30 2 16 8 28 13 28 6 0 9 -8 8
-18 -1 -9 -1 -22 0 -27 1 -13 131 -17 131 -4 0 5 6 9 13 8 38 -5 46 2 50 44 3
40 4 40 5 -10 l2 -53 49 0 c46 0 50 2 55 27 13 70 16 198 6 303 -9 93 -16 125
-41 175 -32 64 -73 113 -132 158 -24 19 -37 36 -37 52 0 13 -4 34 -9 47 -4 13
-11 41 -15 62 l-7 39 73 -65 c142 -127 306 -226 440 -268 32 -10 58 -14 58 -9
0 5 -4 9 -10 9 -5 0 -10 5 -10 11 0 5 -18 47 -39 92 -60 127 -82 201 -122 412
-19 104 -25 215 -11 215 5 0 17 -8 28 -18 101 -94 372 -210 589 -252 33 -7 68
-16 78 -22 37 -19 28 1 -20 45 -62 58 -222 327 -194 327 4 0 26 -13 49 -29 82
-60 225 -120 237 -101 3 5 -13 14 -35 21 -73 22 -241 219 -362 424 -58 99
-178 336 -178 352 0 11 5 13 18 8 9 -4 58 -19 107 -32 50 -13 122 -33 160 -44
120 -33 140 -22 44 25 -105 52 -279 191 -279 223 0 8 -7 27 -15 43 -14 28 -14
29 15 50 44 31 39 62 -31 208 -33 70 -64 136 -69 147 -4 11 -16 37 -25 58 -9
21 -15 40 -13 43 2 2 26 -19 53 -47 28 -28 68 -64 91 -80 35 -24 134 -153 134
-175 0 -17 43 -75 51 -67 12 12 60 233 59 273 -1 44 -16 60 -92 96 -35 16 -66
33 -70 39 -4 5 -7 88 -7 185 0 96 -2 189 -5 205 -14 99 -18 182 -21 403 -3
257 -14 365 -38 390 -13 13 -24 10 -89 -22 -40 -19 -106 -60 -146 -91 -40 -30
-76 -55 -80 -55 -4 1 -18 24 -31 53 -76 165 -106 217 -122 212 -13 -5 -24 7
-43 45 -57 114 -158 255 -302 420 -88 102 -147 157 -234 222 -30 22 -58 48
-61 57 -4 10 -27 23 -50 30 -24 7 -57 19 -74 26 -69 30 -106 37 -220 42 -75 3
-126 10 -135 18 -20 17 -105 59 -171 85 -90 36 -371 62 -514 48z m465 -58 c23
-6 58 -20 78 -30 21 -10 55 -26 77 -36 22 -10 42 -20 45 -23 3 -4 24 -16 47
-28 32 -18 59 -23 111 -23 115 0 187 -11 213 -32 18 -15 19 -18 6 -14 -10 3
-84 9 -163 13 -126 5 -144 4 -144 -9 0 -17 28 -27 75 -28 29 -1 29 -1 10 -16
-16 -12 -38 -14 -100 -9 -44 3 -73 2 -65 -1 8 -3 22 -8 30 -11 17 -7 -27 -20
-72 -22 -32 -1 -38 18 -8 26 11 3 20 11 20 19 0 7 15 15 38 17 20 2 6 4 -32 4
-77 -1 -93 12 -46 35 l32 15 -32 36 c-30 35 -149 117 -169 117 -5 0 -13 5 -17
12 -5 7 -2 9 9 5 9 -3 34 -11 57 -17z m-216 -48 c11 -9 16 -12 13 -6 -11 20
35 25 49 6 11 -15 9 -18 -19 -23 -42 -8 -167 -66 -192 -89 -11 -10 -31 -21
-44 -25 -14 -4 -49 -24 -79 -44 -103 -68 -112 -73 -112 -61 0 10 -3 10 -15 0
-8 -7 -15 -9 -15 -4 0 5 -4 4 -8 -2 -4 -7 -15 -8 -27 -3 -17 6 -17 8 -2 8 9 1
17 5 17 10 0 5 10 11 23 13 27 5 -161 11 -255 9 -67 -2 -100 13 -53 25 29 7
34 24 8 25 -10 0 -28 2 -40 3 -13 2 -23 -2 -23 -7 0 -5 -7 -7 -15 -3 -10 3
-15 -1 -15 -14 0 -14 -6 -18 -25 -17 -14 1 -30 8 -34 16 -5 8 -16 11 -26 7
-11 -4 -15 -2 -13 6 3 7 21 17 41 23 20 6 42 18 49 27 13 17 116 50 131 41 9
-5 160 -8 275 -5 50 1 82 6 82 13 0 7 -21 9 -60 5 -42 -3 -64 -1 -73 8 -7 8
-27 11 -47 9 -30 -3 -32 -2 -17 7 22 14 221 33 249 24 10 -3 18 0 18 6 0 6 10
8 25 4 16 -4 25 -2 25 6 0 7 8 9 20 5 11 -3 27 -2 37 3 30 17 125 13 147 -6z
m-557 -48 c-3 -3 -12 -4 -19 -1 -8 3 -5 6 6 6 11 1 17 -2 13 -5z m647 0 c27
-10 19 -32 -9 -26 -14 2 -39 -1 -55 -8 -23 -10 -28 -16 -19 -26 13 -16 39 -7
39 14 0 12 3 13 11 5 8 -8 20 -8 34 -3 28 10 49 -8 39 -34 -3 -9 -1 -16 6 -16
6 0 8 5 4 13 -4 6 1 4 12 -5 10 -9 39 -56 62 -105 24 -48 50 -100 57 -115 11
-23 11 -29 -2 -40 -13 -10 -18 -9 -29 7 -14 19 -15 19 -32 1 -9 -11 -11 -16
-4 -12 6 4 12 3 12 -3 0 -6 17 -9 40 -7 33 3 40 1 40 -14 0 -10 -6 -21 -12
-23 -8 -4 -7 -6 3 -6 16 -1 29 -25 44 -80 7 -22 5 -24 -22 -18 -16 3 -35 2
-43 -4 -17 -10 -9 -12 38 -9 37 2 42 -7 47 -82 5 -88 4 -83 17 -70 10 10 10
14 0 21 -9 5 -6 11 11 20 13 7 36 29 53 49 16 20 94 103 174 183 151 152 189
177 247 163 40 -10 26 -27 -18 -21 -28 4 -39 2 -36 -6 2 -7 16 -13 30 -15 41
-5 32 -22 -11 -22 -21 0 -43 -5 -50 -12 -18 -18 -14 4 5 32 l17 25 -24 -16
c-14 -9 -26 -22 -26 -28 -1 -6 -2 -15 -3 -21 0 -5 -11 -10 -24 -10 -24 0 -59
-31 -70 -63 -4 -10 -11 -16 -16 -12 -5 3 -13 0 -17 -6 -4 -8 -3 -9 4 -5 7 4
12 2 12 -4 0 -7 -7 -9 -16 -6 -9 3 -21 3 -27 -1 -17 -10 19 -19 59 -15 18 2
32 8 29 12 -9 14 73 22 198 18 64 -2 117 0 117 3 0 4 -7 12 -15 19 -11 9 -15
9 -15 1 0 -13 -200 -14 -221 -1 -21 14 7 19 100 21 68 1 91 5 91 14 0 8 -12
15 -27 17 l-28 4 25 11 25 11 -24 9 c-16 6 -20 12 -13 17 18 11 62 -45 56 -69
-3 -13 -2 -16 3 -8 12 17 26 5 57 -49 15 -27 32 -48 37 -48 5 0 9 -9 9 -20 0
-11 -4 -20 -10 -20 -5 0 -10 5 -10 11 0 8 -6 7 -16 -2 -22 -18 -251 -20 -262
-2 -8 13 -190 22 -209 10 -20 -12 -15 -27 7 -27 13 0 20 -7 20 -20 0 -13 7
-20 19 -20 21 0 48 27 37 37 -3 4 -12 -2 -20 -12 -13 -18 -14 -18 -25 3 -6 11
-11 23 -11 26 0 6 43 1 56 -7 6 -3 30 -1 53 4 54 12 67 4 17 -10 -20 -5 -50
-24 -66 -41 -20 -21 -36 -30 -46 -26 -18 7 -44 -10 -44 -28 0 -6 4 -4 10 4 5
8 11 12 15 9 7 -8 -139 -127 -172 -140 -21 -8 -28 -6 -40 11 -8 11 -22 20 -32
20 -14 0 -24 17 -41 73 -13 39 -27 77 -31 83 -5 6 -6 14 -2 17 3 4 1 12 -4 19
-5 7 -18 36 -27 63 -68 189 -95 217 -188 194 -29 -8 -58 -13 -65 -13 -7 1 -11
-1 -10 -5 3 -13 -24 -51 -37 -51 -7 0 -29 -17 -48 -37 -68 -73 -198 -184 -207
-178 -6 3 -18 -1 -28 -10 -10 -8 -27 -22 -38 -31 -20 -15 -20 -15 3 -11 12 3
22 1 22 -4 0 -9 -14 -13 -36 -10 -12 1 -71 -65 -138 -154 -20 -27 -47 -52 -59
-55 -13 -4 -23 -15 -25 -28 -3 -16 -8 -21 -20 -18 -9 3 -24 1 -32 -4 -12 -8
-11 -10 8 -10 28 0 29 -17 1 -25 -16 -5 -18 -9 -9 -15 10 -6 8 -17 -8 -46 -12
-22 -31 -63 -43 -91 -12 -29 -25 -53 -30 -53 -5 0 -9 -5 -9 -12 0 -6 -15 -44
-33 -82 -19 -39 -39 -84 -45 -99 l-12 -28 -108 0 c-59 1 -127 1 -152 0 l-45 0
43 -12 c24 -7 41 -15 37 -19 -4 -4 -4 -12 0 -19 6 -8 13 -5 24 10 14 19 28 22
104 25 77 3 88 1 85 -13 -2 -11 -18 -17 -53 -21 -35 -4 -45 -7 -32 -13 11 -4
24 -4 30 0 7 4 8 0 3 -12 -6 -18 -6 -18 15 1 24 20 24 20 3 -31 -3 -8 -1 -15
6 -15 6 0 10 -6 7 -12 -2 -7 -14 -13 -27 -13 -13 0 -25 -5 -27 -11 -2 -7 6
-10 22 -7 25 5 35 -10 14 -22 -6 -4 -9 -21 -7 -38 l3 -32 -82 -3 c-46 -2 -83
-6 -83 -11 0 -4 34 -6 76 -4 69 4 75 3 72 -13 -2 -12 -13 -19 -33 -21 -130 -9
-175 -10 -179 -6 -3 3 0 15 6 27 7 11 12 28 13 36 0 9 12 16 33 18 40 4 43 22
3 22 -32 0 -49 15 -27 23 7 3 16 21 20 40 7 37 21 47 64 47 15 0 33 4 41 9 18
12 -69 18 -171 13 -95 -5 -104 -22 -12 -22 60 0 65 -1 53 -16 -14 -17 -15 -20
-17 -66 -2 -21 -9 -29 -29 -34 -14 -4 -33 -2 -42 3 -11 7 -24 7 -41 -1 -23
-10 -22 -11 20 -13 66 -5 75 -10 59 -29 -8 -9 -14 -22 -14 -28 -1 -6 -4 -18
-8 -26 -23 -53 -39 -109 -39 -132 1 -16 -4 -29 -11 -29 -18 -3 -49 -5 -77 -7
-20 -2 -22 -4 -10 -12 8 -6 27 -7 42 -4 30 6 43 -8 29 -33 -9 -18 -31 -115
-36 -163 -1 -14 -4 -25 -5 -25 -1 0 -4 -11 -5 -25 -5 -52 -15 -125 -21 -142
-3 -10 0 -18 7 -18 9 0 8 -4 -1 -15 -16 -19 -24 -121 -10 -130 5 -3 29 -3 53
0 41 6 43 8 44 41 1 19 -3 37 -8 40 -5 3 -6 11 -2 17 6 11 5 149 -2 214 -1 15
3 39 10 53 7 14 10 30 8 36 -2 6 1 23 6 37 10 25 16 27 68 29 l58 2 -50 3
c-71 5 -81 9 -64 29 8 9 14 24 14 33 0 13 15 17 75 21 l75 5 -74 7 c-82 8 -92
13 -67 31 10 7 22 35 27 62 5 26 11 50 13 52 8 9 216 15 216 7 0 -5 -7 -22
-16 -39 -20 -37 -56 -174 -49 -185 3 -5 2 -11 -3 -14 -4 -2 -9 -19 -10 -37 -3
-41 -16 -129 -36 -239 -17 -102 -24 -151 -32 -250 -3 -41 -8 -78 -10 -82 -2
-4 -30 -5 -62 -2 -39 3 -62 10 -72 23 -18 23 -135 40 -128 19 3 -7 15 -14 27
-14 35 -2 37 -14 3 -14 -26 0 -32 -4 -32 -21 0 -12 8 -28 18 -35 16 -13 16
-13 -2 -14 -15 0 -17 -6 -14 -35 2 -19 0 -35 -6 -35 -6 0 -6 -4 1 -11 7 -7 8
-21 3 -39 -6 -21 -4 -30 5 -34 19 -7 85 5 85 15 0 5 -4 9 -8 9 -5 0 -9 7 -9
15 0 11 11 15 39 15 48 0 50 18 2 22 l-37 3 -2 78 c-2 42 0 79 5 82 4 2 15 -4
25 -15 10 -11 13 -20 8 -20 -6 0 -10 -11 -9 -25 0 -14 7 -25 15 -25 8 0 11 6
7 15 -11 30 12 13 66 -47 l55 -63 6 -165 c6 -150 19 -285 32 -350 3 -14 7 -36
9 -50 2 -14 9 -45 16 -69 15 -57 8 -61 -14 -8 -10 23 -24 56 -31 72 -19 44
-61 175 -70 215 -4 19 -13 53 -20 75 -7 22 -21 82 -31 134 -17 91 -17 94 1
107 20 15 13 17 -23 8 -20 -6 -22 -11 -18 -58 2 -28 9 -63 15 -77 5 -15 7 -30
4 -33 -3 -3 -1 -11 5 -18 5 -7 12 -29 14 -48 l3 -35 -65 0 c-36 0 -66 -4 -68
-10 -3 -14 74 -18 108 -7 26 10 28 8 41 -31 7 -23 14 -46 15 -52 0 -5 4 -17 7
-25 7 -19 47 -148 47 -153 0 -8 -69 -6 -75 3 -3 5 -1 10 6 10 29 0 -2 11 -42
16 -24 2 -54 7 -66 9 -18 4 -23 1 -23 -14 0 -10 7 -24 16 -32 14 -11 14 -13
-1 -21 -8 -5 -13 -14 -10 -19 4 -5 8 -26 11 -47 2 -20 6 -48 8 -62 4 -26 32
-151 42 -185 4 -13 3 -17 -4 -10 -5 6 -15 28 -22 50 -7 22 -18 54 -25 70 -26
64 -38 101 -40 122 -1 13 -5 26 -8 30 -4 3 -7 15 -7 26 0 11 -9 21 -20 24 -18
5 -19 7 -5 17 19 13 10 46 -11 46 -8 0 -14 5 -14 10 0 6 4 10 9 10 5 0 8 19 6
43 -2 23 -5 42 -6 42 -1 0 -3 20 -4 44 -2 24 -9 48 -17 52 -11 7 -10 11 1 18
11 7 12 13 4 23 -6 7 -11 20 -11 28 -1 8 -5 35 -11 59 -5 25 -7 51 -4 58 3 8
-3 13 -18 13 -24 1 -24 1 -4 16 24 18 22 62 -3 82 -9 7 -11 12 -4 12 8 0 12
21 12 65 l0 65 -37 1 -38 2 35 6 35 6 1 148 c0 95 -3 147 -10 147 -6 0 -5 5 2
12 19 19 15 48 -7 48 -15 0 -22 -12 -31 -50 -7 -28 -16 -53 -21 -56 -5 -3 -7
-9 -4 -14 3 -5 -1 -20 -10 -34 -16 -24 -6 -44 15 -31 6 3 10 1 10 -4 0 -6 -11
-11 -25 -11 -14 0 -24 -3 -23 -7 0 -5 -1 -15 -5 -23 -13 -36 -27 -112 -22
-121 4 -5 0 -12 -8 -15 -8 -3 -15 -15 -15 -27 1 -12 -6 -46 -14 -75 -13 -43
-13 -55 -3 -59 10 -3 9 -9 -6 -24 -10 -10 -19 -26 -19 -34 0 -8 -4 -15 -9 -15
-6 0 -9 12 -8 28 2 24 -2 27 -33 31 l-35 5 39 5 39 6 0 68 c-1 37 3 70 8 73 5
3 7 9 4 14 -3 4 2 38 10 75 9 37 15 74 14 84 -1 9 0 23 4 31 18 50 23 77 16
95 -6 17 -8 17 -8 3 -1 -10 -5 -18 -11 -18 -13 0 -13 -3 6 59 8 29 13 59 10
66 -3 8 4 17 15 20 10 4 16 11 13 17 -4 5 -2 20 4 31 12 27 48 124 57 153 5
20 11 21 70 16 47 -3 65 -1 65 7 0 8 -8 10 -19 6 -11 -3 -23 -1 -26 6 -6 8
-10 7 -16 -2 -6 -10 -9 -11 -9 -1 0 7 -13 12 -32 12 -30 0 -31 1 -14 19 10 11
15 25 11 30 -3 6 -1 11 6 11 6 0 9 8 6 20 -3 11 -1 20 4 20 6 0 15 14 20 30 7
20 18 30 31 30 10 0 16 5 13 10 -4 6 -11 7 -17 4 -12 -8 -5 17 28 100 13 32
22 62 19 66 -7 11 22 33 34 26 13 -8 42 4 35 15 -3 5 -13 9 -24 9 -17 0 -17 2
-1 45 9 24 20 47 24 51 4 4 7 18 7 31 0 30 38 46 98 41 23 -2 42 0 42 4 0 5
-15 8 -32 8 -45 0 -68 15 -39 25 21 6 30 35 11 35 -5 0 -10 -4 -10 -10 0 -5
-4 -10 -10 -10 -5 0 -10 8 -10 18 0 17 12 18 188 17 103 -1 196 -3 206 -6 10
-2 21 1 23 8 3 8 -45 12 -184 13 -103 0 -202 3 -220 6 -28 4 -34 1 -64 -43
-19 -26 -33 -50 -32 -53 3 -13 -19 -40 -32 -40 -19 0 -19 14 -2 32 7 7 22 28
32 46 11 17 23 32 27 32 4 0 8 5 8 11 0 5 13 24 30 42 16 18 30 36 30 40 0 4
14 21 30 36 17 15 39 43 49 62 16 30 23 34 55 33 20 -1 36 2 36 7 0 9 -22 13
-48 10 -24 -4 10 45 114 162 103 117 290 297 315 305 10 3 8 -2 -5 -17 -11
-11 -14 -21 -9 -21 11 0 27 29 25 42 -2 7 160 157 186 173 10 5 33 10 52 11
19 1 76 3 125 4 l90 3 -65 6 c-36 3 -87 3 -115 0 -27 -4 -51 -5 -53 -4 -3 3
147 119 183 143 75 48 91 57 100 53 20 -8 135 -8 135 0 0 9 -58 14 -110 11
-24 -1 -24 -1 5 19 17 11 59 34 95 50 36 17 83 39 105 50 46 22 39 21 59 13z
m184 -171 c-13 -16 0 -37 15 -25 16 13 179 13 194 0 7 -5 33 -8 58 -6 33 2 44
0 40 -9 -2 -7 0 -13 5 -13 6 0 10 -5 10 -11 0 -7 -7 -8 -17 -4 -10 4 -25 9
-33 12 -13 4 -13 4 0 -6 12 -9 8 -11 -17 -11 -25 0 -31 4 -27 15 5 12 0 15
-24 13 -16 -1 -37 4 -46 11 -10 9 -16 9 -16 2 0 -6 -11 -8 -30 -4 -31 6 -36
-1 -21 -26 5 -7 14 -10 20 -7 6 4 19 2 28 -3 10 -6 15 -11 11 -12 -5 -1 -12
-3 -18 -4 -5 -1 -13 -3 -17 -4 -5 -1 7 -7 25 -14 31 -11 41 -30 17 -33 -5 0
-17 -2 -25 -3 -13 -1 -13 -2 0 -11 13 -9 13 -11 0 -19 -20 -13 -13 -17 39 -24
29 -4 40 -2 30 4 -11 7 -11 9 0 9 11 0 11 3 1 15 -11 13 -8 13 20 4 17 -6 52
-9 76 -6 l45 5 -81 -81 c-45 -45 -93 -94 -106 -110 -14 -16 -26 -28 -28 -26
-10 12 -65 201 -70 239 -3 25 -3 40 0 34 6 -14 44 -6 44 8 0 6 -7 8 -15 4 -19
-7 -77 13 -69 25 3 5 2 9 -3 9 -4 0 -13 10 -19 23 -6 12 -21 39 -34 61 l-23
38 36 -23 c26 -17 33 -27 25 -36z m519 18 c8 -12 23 -19 40 -19 15 0 44 -6 63
-15 l35 -15 -29 -1 c-54 -2 -16 -15 50 -17 60 -3 69 -6 114 -44 48 -41 234
-245 296 -325 33 -43 92 -142 138 -233 28 -56 28 -58 15 -124 -11 -64 -29 -92
-29 -48 0 10 -8 35 -17 55 -12 25 -23 35 -40 35 -27 0 -22 -20 5 -21 12 0 10
-3 -6 -10 -15 -6 -30 -5 -40 1 -13 7 -13 9 -3 10 28 0 1 13 -34 16 -23 2 -33
-1 -29 -7 3 -6 -2 -5 -12 1 -11 7 -26 28 -35 49 -9 20 -28 62 -43 93 -15 33
-23 64 -19 74 4 11 3 15 -4 11 -7 -4 -14 5 -18 23 -4 16 -10 30 -14 30 -5 0
-16 18 -26 40 -10 22 -21 40 -25 40 -4 0 -12 11 -18 24 -9 19 -8 27 4 37 8 6
12 14 9 17 -2 3 -12 -1 -22 -9 -9 -8 -14 -9 -10 -3 4 7 -2 14 -14 17 -33 9
-12 28 24 22 49 -7 61 -10 75 -18 20 -13 14 -27 -12 -27 -32 0 -57 -10 -51
-21 3 -4 12 -6 19 -3 7 3 16 -2 19 -10 8 -20 36 -20 62 0 20 15 20 15 -2 20
-12 3 -20 11 -17 18 7 18 -34 56 -61 56 -32 0 -41 18 -19 35 11 8 14 15 9 15
-6 0 -16 -5 -21 -10 -8 -8 -15 -6 -24 5 -12 15 -4 21 23 16 5 -1 5 3 2 9 -4 6
-13 9 -20 6 -7 -2 -23 4 -36 15 -41 35 -52 24 -15 -16 27 -29 39 -62 25 -71
-5 -3 -9 3 -9 13 0 19 -94 130 -153 183 -33 28 -41 31 -102 29 -37 -1 -61 -5
-55 -9 7 -4 2 -13 -14 -24 -14 -9 -26 -13 -26 -8 0 5 -14 9 -31 10 -36 1 -63
21 -40 29 11 5 11 7 0 14 -16 10 27 29 69 30 15 0 21 3 13 6 -11 5 -11 7 0 14
25 16 74 10 86 -10z m169 -42 c11 -19 -29 7 -51 32 l-20 23 32 -23 c18 -12 35
-27 39 -32z m-1607 5 c14 -12 -20 -18 -90 -16 -77 3 -82 5 -64 18 15 12 35 13
85 8 36 -3 67 -8 69 -10z m41 6 c0 -5 -5 -10 -11 -10 -5 0 -7 5 -4 10 3 6 8
10 11 10 2 0 4 -4 4 -10z m137 -26 c11 -10 25 -13 47 -9 l31 6 -45 -38 c-25
-21 -67 -58 -95 -83 -95 -85 -123 -104 -140 -90 -23 19 -18 33 10 26 17 -4 31
-1 40 8 13 13 12 15 -7 18 -13 2 -22 8 -21 15 1 6 -10 10 -28 8 -34 -2 -52
-15 -23 -15 18 -1 18 -1 1 -14 -17 -14 -116 -20 -151 -9 -25 7 -1 23 37 23 15
0 27 5 27 10 0 6 -18 10 -40 10 -29 0 -43 -5 -52 -20 -7 -11 -23 -20 -36 -20
-13 0 -36 -7 -52 -15 -31 -16 -140 -19 -140 -3 0 14 52 31 93 29 25 -1 36 2
32 9 -3 5 -13 10 -22 10 -25 0 -5 14 25 17 19 2 23 1 13 -6 -10 -6 -11 -13 -2
-27 6 -11 11 -13 11 -6 0 7 14 12 33 12 30 1 31 1 13 15 -25 19 -16 28 15 16
17 -6 33 -4 54 7 29 16 29 17 6 20 -13 2 -28 -1 -33 -6 -11 -11 -48 -4 -48 9
0 5 12 9 27 9 33 0 26 9 -10 12 -28 2 -35 12 -16 24 6 3 58 6 115 5 91 -2 104
0 104 15 0 15 2 15 23 1 16 -10 55 -17 115 -19 92 -3 110 1 97 22 -5 8 -10 9
-14 2 -7 -12 -161 -4 -161 8 0 12 81 19 107 9 13 -5 31 -9 40 -9 13 0 13 3 3
15 -16 20 -3 19 17 -1z m-582 -14 c-10 -11 -22 -20 -28 -20 -5 0 1 9 14 20 31
25 37 25 14 0z m250 0 c4 -6 -8 -10 -30 -10 -22 0 -34 4 -30 10 3 6 17 10 30
10 13 0 27 -4 30 -10z m45 0 c0 -5 -4 -10 -10 -10 -5 0 -10 5 -10 10 0 6 5 10
10 10 6 0 10 -4 10 -10z m1435 -49 c-3 -6 -13 -11 -21 -11 -8 0 -14 -6 -14
-14 0 -8 -5 -18 -10 -21 -12 -8 -51 36 -43 49 3 4 9 3 13 -4 6 -9 9 -9 15 0 4
6 13 9 19 7 7 -3 19 -1 27 3 16 11 24 6 14 -9z m-1620 -31 c-3 -5 -11 -10 -16
-10 -6 0 -7 5 -4 10 3 6 11 10 16 10 6 0 7 -4 4 -10z m1803 -22 c-3 -8 -30
-15 -65 -19 -32 -3 -65 -9 -71 -13 -7 -4 -12 -3 -12 3 0 20 29 28 138 40 8 0
12 -5 10 -11z m-408 -18 c0 -5 -4 -10 -10 -10 -5 0 -10 5 -10 10 0 6 5 10 10
10 6 0 10 -4 10 -10z m244 -5 c-6 -16 -24 -21 -24 -7 0 11 11 22 21 22 5 0 6
-7 3 -15z m-2399 -35 c3 -5 -1 -10 -10 -10 -9 0 -13 5 -10 10 3 6 8 10 10 10
2 0 7 -4 10 -10z m2415 6 c0 -3 -4 -8 -10 -11 -5 -3 -10 -1 -10 4 0 6 5 11 10
11 6 0 10 -2 10 -4z m-1466 -32 c9 -3 16 -10 16 -15 0 -6 -8 -5 -19 1 -28 14
-35 12 -17 -5 8 -8 19 -15 25 -15 6 0 11 -4 11 -10 0 -5 -8 -10 -17 -10 -15 0
-15 -2 -4 -9 21 -13 56 6 42 23 -5 6 -6 18 -2 25 6 9 10 6 15 -11 5 -19 8 -20
15 -8 6 8 13 11 17 7 4 -4 -5 -16 -19 -27 -83 -65 -250 -215 -283 -254 -39
-46 -73 -62 -59 -28 4 9 8 24 9 33 2 24 46 79 64 79 9 0 12 6 8 15 -3 10 1 18
12 22 9 4 22 12 27 19 13 15 55 25 55 13 0 -5 -10 -14 -22 -19 -19 -7 -20 -9
-5 -9 11 -1 30 8 43 18 20 16 21 20 8 25 -8 3 -13 10 -10 15 3 5 -4 11 -15 14
-35 9 -89 -5 -105 -27 -15 -20 -15 -20 -9 9 4 17 8 35 10 41 2 6 17 9 34 6 17
-2 56 -1 86 3 51 6 55 8 55 32 0 15 -3 23 -7 20 -3 -4 -16 -1 -27 7 -13 8 -29
10 -41 6 -21 -8 -22 -8 32 -26 15 -4 15 -6 3 -14 -18 -11 -120 -13 -120 -2 0
4 21 19 48 34 46 27 109 36 146 22z m-304 -28 c0 -11 -19 -15 -25 -6 -3 5 1
10 9 10 9 0 16 -2 16 -4z m-30 -27 c0 -8 -45 -22 -114 -34 -36 -6 -38 -5 -23
10 16 15 39 21 95 24 13 0 20 5 17 11 -3 6 1 7 9 4 9 -3 16 -10 16 -15z m2020
-61 c78 4 131 3 140 -3 13 -8 73 -126 67 -132 -9 -8 -46 39 -40 52 3 10 -2 12
-16 8 -26 -7 -26 -15 -1 -31 23 -14 19 -31 -8 -31 -9 0 -60 -3 -112 -7 -89 -6
-110 -14 -110 -39 1 -5 5 -2 10 7 9 14 27 17 113 17 56 1 120 3 143 6 l41 4
17 -57 c10 -31 22 -61 26 -67 4 -5 10 -22 14 -36 3 -15 26 -53 50 -85 24 -33
65 -99 91 -149 120 -226 135 -257 135 -272 0 -9 8 -26 19 -37 25 -28 191 -356
191 -378 0 -9 8 -23 18 -30 16 -11 85 -125 104 -169 3 -9 38 -68 77 -132 39
-64 74 -124 78 -133 12 -33 -53 26 -149 134 -156 176 -151 171 -180 165 l-26
-5 -2 -170 c0 -149 1 -170 15 -165 9 4 15 1 15 -9 0 -9 -7 -14 -17 -12 -15 2
-18 -5 -18 -42 0 -30 5 -47 15 -52 12 -5 12 -7 -2 -7 -13 -1 -18 -9 -18 -31 0
-16 5 -30 11 -30 5 0 7 -4 4 -10 -3 -5 -8 -43 -10 -83 -4 -65 -20 -136 -29
-126 -2 2 -6 56 -9 119 -6 111 -12 157 -42 305 -8 39 -19 106 -25 150 -11 80
-60 308 -81 375 -28 93 -40 142 -55 230 -8 52 -22 113 -29 135 -7 22 -18 65
-24 95 -6 30 -13 66 -16 80 -3 14 -12 58 -20 98 -8 41 -22 83 -30 95 -8 12
-15 34 -15 49 0 25 -21 42 -46 37 -32 -6 -144 3 -144 11 0 6 9 10 20 10 11 0
20 5 20 10 0 6 -22 10 -50 10 -27 0 -50 -4 -50 -10 0 -5 9 -10 21 -10 16 0 20
-5 17 -27 l-3 -27 75 -1 c77 -1 105 -9 94 -26 -4 -6 -11 -6 -19 1 -10 8 -15 8
-20 0 -4 -7 -33 -11 -74 -9 -107 4 -125 1 -112 -15 15 -18 49 -27 57 -14 3 5
14 2 26 -9 11 -10 22 -17 24 -15 2 1 36 2 74 2 57 0 70 -3 70 -16 0 -12 -12
-15 -62 -14 -83 2 -82 2 -68 -15 7 -9 35 -15 73 -17 57 -3 62 -5 65 -27 2 -13
-2 -28 -10 -32 -10 -7 -9 -9 5 -9 9 0 17 -4 17 -8 0 -9 -83 -7 -98 2 -6 3 -13
2 -17 -4 -4 -6 -11 -8 -16 -5 -15 10 -49 -5 -49 -21 0 -8 -4 -14 -10 -14 -5 0
-7 -6 -4 -13 2 -7 21 -12 43 -12 22 0 38 -2 35 -6 -7 -11 42 -19 75 -13 34 7
36 21 8 38 -13 8 -20 8 -25 -1 -5 -8 -13 -9 -22 -3 -8 6 -25 10 -38 10 -13 0
-20 4 -17 10 3 5 23 9 43 9 20 -1 42 0 47 1 33 8 43 -2 49 -47 9 -68 9 -68 -8
-71 -11 -2 -16 4 -17 20 0 22 -1 22 -9 3 -5 -11 -9 -14 -9 -7 -1 6 -11 12 -23
11 -22 0 -22 -1 -3 -9 11 -5 18 -9 15 -10 -7 -3 -48 -8 -103 -13 -90 -8 -62
-19 41 -15 65 2 103 -1 102 -7 -1 -5 8 -12 20 -15 43 -10 18 -25 -52 -32 -185
-17 -216 -33 -46 -25 129 7 131 6 132 -52 1 -30 -3 -36 -19 -34 -26 2 -166 5
-187 4 -10 -1 -18 -5 -18 -10 0 -5 48 -10 106 -10 59 -1 110 -4 115 -7 5 -3 9
-14 9 -25 0 -18 -6 -20 -70 -18 -38 1 -70 5 -70 10 0 11 -44 7 -52 -6 -5 -6
-11 -5 -18 5 -8 13 -10 13 -10 -1 0 -14 15 -18 78 -23 42 -3 92 -6 110 -6 42
1 51 -5 45 -30 -5 -18 -25 -30 -22 -12 3 19 -2 23 -15 13 -8 -6 -18 -11 -22
-10 -5 1 -20 -2 -34 -8 l-25 -10 24 -8 c13 -4 28 -2 34 4 13 13 30 15 22 2 -3
-5 6 -11 20 -13 51 -6 19 -23 -45 -24 -79 0 -90 -2 -90 -12 0 -4 23 -9 52 -10
60 -3 63 -4 49 -29 -6 -10 -11 -12 -11 -5 0 6 -7 12 -16 12 -8 0 -12 -4 -9
-10 4 -6 -7 -10 -24 -10 -17 0 -31 -5 -31 -11 0 -7 17 -10 45 -7 26 2 44 -1
42 -7 -1 -5 -8 -10 -16 -10 -8 0 -16 -6 -19 -13 -2 -7 5 -12 16 -12 11 0 26
-2 34 -5 7 -3 20 0 28 5 13 8 13 11 1 19 -8 5 -11 16 -7 27 4 10 1 21 -5 25
-13 8 -5 39 10 39 11 0 22 -29 26 -73 1 -18 6 -40 10 -49 6 -15 -4 -16 -104
-14 -60 2 -116 -1 -123 -5 -11 -8 43 -11 192 -13 24 -1 35 -6 35 -16 0 -10
-11 -15 -35 -16 -19 0 -60 -2 -90 -4 l-55 -3 50 -6 c49 -6 50 -7 47 -36 -2
-16 -10 -34 -18 -38 -19 -11 -18 -27 2 -27 11 0 13 -6 9 -19 -11 -36 -24 -134
-19 -143 6 -10 -20 -38 -35 -38 -6 0 -11 -5 -11 -11 0 -6 7 -8 16 -5 11 4 15
2 11 -8 -3 -8 -1 -17 6 -19 9 -3 9 -7 0 -19 -11 -13 -30 -122 -25 -142 2 -4
-2 -14 -8 -21 -5 -6 -12 -32 -14 -56 -4 -44 -25 -117 -52 -176 -8 -17 -14 -36
-14 -42 0 -6 -9 -25 -20 -43 -11 -18 -20 -41 -20 -51 0 -23 -20 -30 -51 -18
l-24 9 33 12 c21 8 32 19 32 31 0 28 -4 34 -19 31 -11 -3 -12 7 -7 50 4 29 11
54 15 56 5 1 7 16 5 32 -2 16 1 32 6 35 6 4 8 10 5 14 -2 5 2 32 11 60 8 28
13 55 10 59 -2 4 2 41 9 82 7 41 13 109 13 150 0 112 0 110 19 103 11 -4 14
-3 9 5 -4 7 -14 12 -22 12 -11 0 -14 16 -14 73 -2 188 -11 366 -22 417 -6 30
-12 60 -13 65 -5 40 -19 114 -26 132 -4 12 -9 48 -10 80 -1 32 -6 69 -11 82
-12 33 -3 57 16 42 12 -10 14 -6 13 24 -1 37 -27 51 -27 14 0 -34 -18 -12 -25
32 -8 47 -2 58 20 35 19 -19 35 -21 35 -5 0 6 6 9 14 6 24 -9 27 5 4 21 -26
19 -78 24 -78 8 -1 -6 -9 12 -19 39 -10 28 -34 85 -54 128 -39 81 -42 93 -29
100 4 2 1 2 -5 1 -7 -2 -16 9 -19 24 -4 15 -14 37 -22 50 -8 12 -11 22 -8 22
4 0 0 13 -9 30 -8 16 -15 31 -15 32 0 2 45 4 100 3 55 -1 100 3 100 7 0 4 23
8 52 8 28 0 48 3 45 6 -10 10 -108 12 -141 3 -19 -6 -34 -4 -43 2 -7 6 -22 9
-33 6 -13 -3 -20 0 -20 9 0 8 -5 14 -11 14 -6 0 -9 -9 -6 -20 3 -13 0 -20 -9
-20 -8 0 -11 6 -8 15 4 8 1 15 -5 15 -6 0 -11 -7 -11 -15 0 -23 -20 -18 -29 8
-5 12 -7 25 -5 28 2 3 34 4 71 1 38 -3 79 -4 93 -4z m-601 -209 c-7 -4 -18 -5
-26 -2 -10 4 -11 9 -2 19 9 11 15 12 26 3 11 -9 11 -14 2 -20z m-576 4 c-13
-2 -33 -2 -45 0 -13 2 -3 4 22 4 25 0 35 -2 23 -4z m464 1 c-3 -3 -12 -4 -19
-1 -8 3 -5 6 6 6 11 1 17 -2 13 -5z m-217 -64 c0 -5 -3 -10 -7 -10 -5 0 -18
-3 -30 -6 -13 -4 -23 -2 -23 4 0 10 19 18 48 21 6 0 12 -3 12 -9z m126 -12
c34 -15 35 -21 11 -65 -9 -18 -17 -45 -17 -62 0 -23 -5 -30 -22 -34 -22 -3
-21 -4 6 -15 35 -15 97 3 89 25 -3 9 3 13 20 13 27 0 45 29 26 40 -17 11 34
18 77 11 l36 -6 -46 -14 c-25 -7 -43 -17 -40 -23 3 -5 11 -7 18 -5 8 3 12 -8
12 -37 -1 -36 -4 -41 -23 -40 -12 0 -19 -4 -16 -9 3 -5 14 -7 24 -4 15 4 19 0
19 -18 0 -20 -3 -22 -37 -16 -21 3 -56 4 -78 1 -34 -5 -30 -7 32 -11 40 -2 74
-7 77 -10 14 -13 21 -267 12 -404 -1 -22 1 -45 6 -52 6 -7 2 -14 -12 -18 -16
-5 -19 -10 -10 -20 14 -16 4 -193 -11 -212 -7 -7 -5 -13 3 -15 10 -4 10 -8 1
-20 -7 -8 -14 -23 -16 -34 -2 -10 -9 -29 -15 -42 -7 -12 -10 -27 -7 -32 4 -6
0 -13 -8 -16 -13 -4 -33 -74 -28 -97 1 -4 -3 -16 -8 -25 -5 -10 -12 -37 -14
-60 -3 -22 -8 -46 -12 -52 -3 -5 4 -14 17 -19 l23 -8 -23 -7 c-26 -9 -30 -45
-4 -48 9 0 22 -2 27 -3 6 -2 28 -4 50 -6 31 -2 24 -4 -28 -8 -37 -3 -68 -10
-70 -16 -1 -6 31 -12 73 -15 86 -6 84 -20 -2 -15 -31 1 -61 -1 -68 -5 -6 -4
-11 -26 -12 -48 0 -37 -3 -42 -24 -42 -13 0 -24 5 -24 10 0 6 7 10 15 10 22 0
20 66 -2 79 -15 9 -15 10 -2 11 11 0 15 10 15 43 -1 41 -2 42 -41 48 -22 3
-32 7 -22 9 9 1 22 4 27 5 6 1 16 3 23 4 16 1 14 149 -3 238 -7 38 -7 60 0 68
8 10 2 14 -22 18 -44 6 -54 -4 -61 -61 -9 -64 -11 -75 -20 -89 -4 -6 -3 -15 3
-18 8 -5 7 -11 -1 -21 -10 -12 -8 -16 11 -21 22 -6 22 -7 5 -13 -20 -7 -22
-19 -24 -175 l-1 -50 -75 -2 c-43 -1 -75 2 -75 7 0 6 29 10 65 10 l64 0 -2
101 c-3 74 -7 103 -18 110 -10 6 -10 9 -1 9 9 0 11 16 7 63 -4 34 -8 78 -9 97
l-3 35 -72 3 c-46 2 -71 7 -71 15 0 7 -5 6 -15 -3 -18 -19 -36 -131 -24 -146
13 -16 -16 -26 -43 -14 -19 7 -20 9 -4 9 17 1 18 8 11 108 -4 60 -11 114 -17
120 -6 7 -6 13 -1 13 5 0 10 72 11 165 1 140 -1 163 -13 158 -8 -3 -15 -13
-15 -23 0 -10 -6 -25 -13 -32 -8 -7 -12 -19 -9 -26 2 -6 -3 -15 -12 -18 -9 -3
-16 -12 -16 -19 0 -7 -7 -15 -15 -19 -8 -3 -15 -12 -15 -20 0 -8 -9 -21 -21
-29 -19 -14 -79 -143 -79 -171 0 -7 -7 -21 -15 -32 -13 -18 -14 -16 -9 16 2
19 7 73 9 120 3 47 10 100 14 118 8 27 7 32 -7 32 -16 1 -16 1 0 11 9 5 15 15
12 22 -2 7 27 66 66 131 38 65 70 119 70 121 0 1 25 46 55 100 30 53 55 102
55 108 0 15 -13 0 -37 -40 -10 -17 -54 -90 -98 -162 -44 -73 -89 -147 -99
-166 -11 -20 -27 -35 -38 -35 -10 0 -18 -5 -18 -11 0 -5 5 -7 11 -3 8 4 7 0
-1 -15 -6 -12 -16 -19 -22 -15 -7 5 -9 -1 -5 -18 5 -17 2 -30 -8 -38 -8 -7
-15 -21 -15 -31 0 -11 -4 -27 -9 -37 -19 -35 -39 -89 -66 -175 -30 -95 -47
-120 -40 -60 2 21 6 61 9 88 3 28 8 74 12 103 4 43 3 52 -10 52 -23 0 -31 -4
-29 -12 2 -5 -2 -8 -8 -8 -7 0 -9 12 -5 33 3 17 7 39 7 47 0 8 4 24 9 35 18
44 23 60 21 69 -1 6 2 19 7 30 6 12 18 41 27 66 9 25 23 59 30 75 7 17 23 57
36 90 12 33 31 72 41 87 10 14 18 31 18 37 0 6 7 11 16 11 11 0 13 6 9 19 -4
13 3 28 21 46 21 21 32 25 55 20 16 -4 28 -3 27 2 -5 14 35 51 67 63 28 11 64
17 138 24 16 1 36 -4 45 -12 9 -7 12 -11 5 -8 -6 4 -14 2 -17 -3 -8 -13 50
-22 76 -11 22 8 22 9 -5 9 -33 1 -28 16 7 25 14 3 42 22 63 41 21 19 46 38 56
41 9 3 17 12 17 20 0 17 9 18 46 2z m-197 -45 c-24 -33 -43 -43 -76 -43 -20 0
-33 5 -33 13 1 16 57 44 94 46 26 1 27 -1 15 -16z m369 -9 c-9 -9 -21 -13 -27
-10 -20 13 -11 26 16 26 25 0 26 -1 11 -16z m-898 -19 c-7 -9 -15 -13 -17 -11
-7 7 7 26 19 26 6 0 6 -6 -2 -15z m200 -8 c0 -9 -87 -95 -100 -100 -12 -4 -11
-6 3 -6 16 -1 16 -3 2 -28 -9 -16 -24 -41 -35 -58 -23 -35 -60 -113 -60 -126
0 -5 -5 -9 -11 -9 -5 0 -7 -5 -4 -11 4 -6 -3 -21 -14 -33 -13 -14 -19 -29 -15
-39 3 -10 2 -17 -3 -17 -7 0 -30 -54 -48 -117 -3 -8 -15 -9 -42 -3 -23 6 -42
5 -47 0 -7 -7 5 -10 31 -10 23 0 44 -3 47 -8 7 -12 -22 -45 -33 -37 -6 3 -11
1 -11 -4 0 -6 7 -11 14 -11 12 0 12 -7 -4 -37 -10 -21 -28 -70 -40 -110 -23
-74 -49 -123 -50 -93 0 13 -1 13 -11 0 -8 -11 -9 -3 -6 32 3 34 0 51 -10 60
-13 10 -12 14 3 25 16 12 16 13 1 13 -24 0 -21 17 4 25 19 7 20 7 2 21 -10 7
-13 14 -7 14 10 0 21 37 25 90 1 8 5 20 9 25 3 6 13 29 20 53 12 38 17 43 37
37 17 -4 23 -1 23 10 0 9 -7 15 -16 13 -10 -2 -19 2 -21 8 -2 6 12 11 33 12
49 2 58 12 11 12 -39 0 -46 10 -22 30 8 7 15 17 15 23 0 5 11 25 25 43 14 18
25 35 25 39 0 9 101 144 136 182 16 18 44 38 62 44 35 12 43 28 15 30 -10 1
-4 5 12 9 35 9 55 11 55 7z m815 -17 c17 -7 15 -9 -12 -9 -18 -1 -33 4 -33 9
0 12 17 12 45 0z m180 -57 c22 -37 45 -78 50 -92 6 -14 18 -41 28 -59 10 -19
16 -40 13 -47 -3 -8 3 -17 15 -20 30 -10 24 -35 -8 -35 -43 0 -57 13 -44 38
16 29 14 39 -9 45 -11 3 -20 14 -20 24 0 10 -6 27 -14 38 -7 11 -17 40 -21 64
-4 24 -16 59 -27 77 -11 19 -16 34 -11 34 4 0 26 -30 48 -67z m-185 3 c0 -7 9
-25 20 -38 10 -14 16 -28 13 -32 -4 -4 3 -13 15 -22 12 -8 22 -21 22 -28 0
-19 37 -50 45 -37 11 18 22 12 29 -14 3 -13 16 -30 29 -36 34 -18 54 -58 22
-45 -9 3 -15 0 -15 -9 0 -7 10 -15 23 -17 12 -2 21 -9 20 -16 -2 -6 6 -27 16
-45 10 -18 22 -48 26 -65 4 -18 13 -32 21 -32 12 0 12 5 -1 31 -9 17 -14 37
-12 44 3 7 2 16 -2 21 -5 5 -11 21 -15 35 -5 22 -2 28 17 33 38 10 44 7 65
-31 10 -21 31 -60 46 -88 14 -27 26 -58 26 -68 0 -10 6 -20 14 -23 8 -3 12
-12 9 -20 -3 -9 2 -14 13 -15 15 0 13 -3 -6 -10 -14 -6 -52 -9 -85 -7 -34 1
-60 -2 -60 -7 0 -6 39 -9 95 -7 52 1 101 -1 109 -6 24 -17 -6 -23 -120 -27
-72 -2 -115 -7 -122 -15 -9 -10 -8 -12 4 -7 25 8 42 -8 45 -45 2 -18 6 -50 9
-70 4 -28 1 -39 -12 -47 -21 -12 34 -13 137 -1 l65 7 -83 1 -82 2 1 28 c1 15
-1 48 -4 74 -3 26 -2 50 2 52 4 3 42 6 86 7 l79 2 17 -79 c12 -53 14 -80 7
-83 -7 -2 -7 -6 0 -10 21 -13 35 -312 15 -318 -15 -5 -23 33 -9 47 15 15 -9
30 -49 30 -32 0 -32 -1 -36 -88 -2 -56 -22 -29 -23 31 0 31 -4 57 -9 57 -4 0
-7 6 -6 13 6 49 0 58 -38 55 -25 -2 -38 -8 -39 -18 -1 -8 -2 -23 -3 -32 -1
-12 -9 -18 -25 -18 -23 0 -24 4 -25 58 -1 100 -35 301 -68 402 -25 75 -49 119
-39 70 3 -14 12 -63 22 -110 9 -47 17 -89 18 -95 1 -5 11 -63 21 -127 17 -110
18 -119 2 -136 -9 -10 -15 -21 -12 -24 11 -11 -68 -373 -86 -393 -6 -5 -9 -2
-9 8 0 9 -3 16 -7 16 -24 -4 -34 4 -14 10 29 8 45 54 39 113 -2 21 1 39 7 41
6 2 5 10 -4 20 -9 11 -10 17 -2 17 7 0 9 13 6 38 -3 20 -7 69 -9 107 -2 68 -3
70 -32 76 l-29 7 28 1 c15 0 27 5 27 10 0 5 3 16 6 25 5 13 -2 16 -36 16 -41
0 -41 -1 -38 -32 2 -19 -2 -33 -10 -36 -8 -2 -12 7 -12 30 1 18 0 40 0 48 -2
14 9 219 13 250 1 13 -4 86 -17 271 -2 20 -6 42 -11 48 -10 17 4 29 40 34 27
4 26 4 -7 6 -33 1 -38 4 -38 26 0 16 -6 25 -15 25 -18 0 -18 -21 0 -120 30
-164 9 -520 -49 -825 -2 -11 -4 -27 -5 -35 -1 -13 -3 -13 -11 1 -5 8 -10 50
-11 93 -2 42 -7 80 -11 82 -5 3 -5 12 -1 19 5 8 7 34 5 59 -3 34 -8 46 -21 46
-14 1 -14 2 -1 13 16 13 21 131 7 154 -4 6 -2 13 3 15 15 5 24 398 10 398 -6
0 -8 5 -4 12 8 13 12 68 6 81 -2 4 -5 43 -6 87 -3 68 -1 78 11 68 8 -6 12 -17
9 -24 -6 -16 23 -34 53 -34 24 0 27 12 7 29 -8 7 -12 20 -9 30 3 10 0 22 -6
25 -6 4 -11 14 -11 22 0 8 5 12 10 9 6 -3 10 -12 10 -19z m1004 -11 c6 -16 -3
-19 -28 -9 -22 8 -20 24 3 24 10 0 21 -7 25 -15z m-204 -16 c0 -5 -26 -8 -57
-8 l-58 1 50 13 c51 12 65 11 65 -6z m235 -79 c3 -5 1 -10 -4 -10 -6 0 -11 5
-11 10 0 6 2 10 4 10 3 0 8 -4 11 -10z m-2188 -86 c-3 -3 -12 -4 -19 -1 -8 3
-5 6 6 6 11 1 17 -2 13 -5z m-652 -236 c-4 -10 -18 -31 -32 -46 -17 -17 -24
-21 -20 -9 8 21 3 21 -28 1 -38 -25 -30 0 14 46 26 28 44 38 55 34 11 -4 15
-13 11 -26z m2282 -90 c-3 -8 -6 -5 -6 6 -1 11 2 17 5 13 3 -3 4 -12 1 -19z
m-2337 -4 c0 -7 -5 -16 -11 -20 -6 -3 -17 -22 -25 -41 -9 -19 -19 -31 -25 -27
-8 4 -7 9 2 15 8 5 10 9 5 9 -5 0 -1 9 9 20 18 20 17 20 -13 20 -34 0 -40 8
-20 28 16 16 78 12 78 -4z m-585 -96 c-4 -35 -8 -70 -9 -78 -2 -8 -6 -40 -10
-70 -5 -30 -17 -95 -27 -144 l-19 -90 26 -27 c19 -20 22 -28 12 -32 -7 -2 -3
-2 10 0 18 3 23 0 20 -14 -2 -13 -15 -20 -42 -23 -55 -7 -58 -27 -5 -26 45 1
70 -23 27 -25 -12 -1 -27 -2 -33 -4 -5 -1 -18 -3 -27 -3 -12 -1 -15 -7 -11
-18 3 -9 9 -11 12 -6 3 5 20 9 37 9 23 0 31 -5 29 -16 -1 -8 -7 -17 -14 -19
-9 -3 -9 -7 -1 -18 13 -15 4 -38 -11 -28 -12 7 -109 -5 -109 -15 0 -3 29 -6
65 -5 47 2 65 -1 65 -11 0 -23 -24 -31 -87 -29 -35 1 -63 -2 -63 -6 0 -11 54
-20 64 -10 11 11 37 1 52 -19 10 -13 15 -13 40 4 l29 18 -16 -24 c-9 -13 -22
-34 -30 -47 -8 -12 -22 -25 -32 -28 -9 -3 -15 -10 -11 -15 7 -13 -163 -182
-206 -204 l-33 -17 22 30 c21 30 21 34 -10 45 -11 4 -16 0 -15 -11 1 -21 -125
-85 -167 -85 -16 0 -23 -3 -16 -8 17 -10 -44 -40 -86 -42 -18 -1 -31 -5 -29
-8 4 -7 -127 -62 -133 -56 -2 3 17 17 42 31 144 85 373 319 459 468 22 40 36
48 36 22 0 -28 18 -5 25 32 3 20 10 44 15 53 4 9 13 36 20 61 7 25 18 52 26
61 17 19 44 137 44 195 0 23 5 66 10 95 13 67 59 219 66 219 3 0 3 -28 -1 -62z
m500 15 c-4 -18 -1 -23 15 -23 24 0 24 0 5 -36 -8 -16 -15 -36 -15 -44 0 -9
-4 -20 -8 -25 -5 -6 -17 -37 -26 -70 -10 -33 -19 -66 -22 -72 -2 -7 -16 -14
-31 -14 l-28 -2 28 -4 c27 -4 35 -17 18 -27 -8 -5 -21 -50 -26 -86 -1 -9 -7
-25 -13 -37 -6 -11 -9 -23 -5 -26 3 -3 2 -14 -2 -24 -5 -10 -7 -22 -6 -27 1
-4 -3 -14 -10 -22 -6 -7 -8 -17 -5 -22 3 -5 -1 -31 -8 -58 -8 -27 -14 -56 -14
-64 0 -8 -3 -24 -7 -34 -7 -17 -5 -18 19 -12 18 4 25 3 21 -4 -3 -5 -13 -10
-21 -10 -8 0 -14 -5 -14 -11 0 -6 -9 -22 -20 -36 -11 -14 -20 -34 -20 -44 0
-11 -4 -19 -8 -19 -5 0 -17 -6 -28 -14 -19 -15 -19 -15 0 -29 18 -14 18 -14
-5 -20 -20 -5 -28 -17 -38 -56 -7 -27 -19 -52 -27 -55 -10 -4 -13 -13 -9 -26
4 -11 2 -20 -4 -20 -6 0 -22 -24 -36 -52 -15 -29 -24 -42 -21 -28 4 14 9 39
12 55 3 17 8 37 11 45 3 8 7 25 9 37 1 13 7 37 13 55 6 18 13 46 16 63 4 16
21 41 38 57 18 15 50 43 72 62 67 58 33 49 -53 -14 -45 -33 -85 -60 -88 -60
-3 0 -29 -15 -59 -34 -29 -19 -56 -32 -59 -29 -3 4 -6 1 -6 -5 0 -14 -85 -46
-99 -38 -6 4 -9 1 -5 -7 6 -16 -39 -32 -58 -21 -6 4 -8 3 -5 -3 6 -9 -32 -33
-52 -33 -5 0 23 33 63 74 94 97 163 190 252 336 55 90 54 89 104 189 45 89 45
89 83 88 20 -1 37 -5 37 -9 0 -4 -5 -8 -12 -8 -6 0 -8 -3 -4 -7 4 -5 14 0 21
10 9 13 20 17 34 12 12 -3 21 -2 21 4 0 13 -26 19 -77 17 -45 -2 -49 3 -34 32
20 36 63 127 61 130 -4 8 62 132 70 132 6 0 10 5 10 11 0 15 28 36 47 36 10 0
13 -7 8 -24z m730 -233 c-28 -12 -57 -12 -50 0 3 6 21 10 38 9 27 0 29 -2 12
-9z m28 -97 c-7 -2 -21 -2 -30 0 -10 3 -4 5 12 5 17 0 24 -2 18 -5z m2107 -3
c11 -7 12 -12 3 -21 -7 -7 -9 -19 -3 -34 10 -27 4 -35 -25 -35 -19 0 -22 6
-23 50 -1 52 12 63 48 40z m-846 -15 c-4 -8 -10 -12 -15 -9 -14 8 -10 24 6 24
9 0 12 -6 9 -15z m926 5 c0 -5 -4 -10 -10 -10 -5 0 -10 5 -10 10 0 6 5 10 10
10 6 0 10 -4 10 -10z m-1560 -24 c0 -11 -19 -15 -25 -6 -3 5 1 10 9 10 9 0 16
-2 16 -4z m1570 -43 c0 -7 -7 -13 -15 -13 -15 0 -21 31 -8 43 8 8 23 -12 23
-30z m-1947 0 c-13 -2 -35 -2 -50 0 -16 2 -5 4 22 4 28 0 40 -2 28 -4z m1269
-55 c0 -27 -1 -51 -2 -55 -1 -5 -2 -34 -2 -65 0 -32 -4 -58 -9 -58 -5 0 -9 3
-10 8 0 4 -2 18 -4 32 -1 14 -6 62 -9 108 -7 82 -7 84 15 80 19 -3 22 -9 21
-50z m587 23 c17 -11 4 -34 -15 -27 -8 3 -17 -1 -21 -10 -8 -21 4 -29 21 -15
12 10 16 8 21 -9 4 -12 1 -27 -5 -35 -30 -36 41 -45 76 -10 14 13 13 15 -5 15
-22 0 -29 26 -10 32 9 3 9 9 0 26 -9 18 -8 23 7 31 27 14 43 -5 32 -35 -5 -13
-6 -24 -1 -24 5 0 8 -10 8 -22 -1 -13 2 -35 6 -50 6 -23 4 -28 -10 -29 -17 -1
-17 -2 -1 -6 18 -4 26 -24 31 -73 2 -24 0 -25 -53 -23 l-55 2 45 -10 c25 -5
50 -7 56 -5 14 5 26 -89 29 -221 1 -51 4 -96 8 -99 4 -4 2 -13 -4 -20 -5 -7
-12 -23 -13 -36 -2 -13 -8 -36 -15 -51 -6 -16 -11 -37 -11 -47 0 -29 -11 -50
-26 -50 -17 0 -18 -12 -1 -29 10 -10 8 -16 -8 -29 -12 -9 -22 -26 -22 -37 -5
-51 -16 -91 -30 -102 -9 -7 -13 -19 -9 -29 4 -10 0 -24 -9 -34 -9 -10 -15 -21
-14 -26 1 -5 -11 -38 -28 -74 -18 -35 -29 -68 -27 -72 3 -5 -2 -11 -10 -14 -9
-3 -16 -17 -16 -30 0 -13 -5 -24 -10 -24 -6 0 -16 -12 -23 -27 -6 -16 -24 -48
-40 -73 -20 -32 -26 -38 -22 -19 3 14 8 32 9 40 2 8 6 21 9 29 7 17 17 63 22
100 4 34 34 177 46 220 6 19 12 51 13 70 2 19 6 42 9 50 4 8 8 35 11 60 3 25
8 61 11 80 8 57 18 133 20 157 1 13 4 26 8 29 3 3 3 12 0 20 -3 8 -1 14 3 14
5 0 10 15 11 33 1 17 3 48 4 69 2 20 -3 43 -10 52 -11 12 -11 16 -1 16 9 0 11
11 7 34 -4 22 -1 36 6 39 7 2 -4 9 -23 15 l-35 10 32 1 c40 1 51 17 18 25 -14
4 -25 11 -25 17 0 6 -9 8 -20 4 -14 -4 -20 -2 -20 9 0 8 4 17 10 21 5 3 7 12
3 20 -6 19 29 20 56 3 15 -9 26 -8 52 5 40 20 41 19 -41 21 -68 2 -102 13 -81
25 6 4 12 34 14 67 2 70 19 89 56 65z m368 -63 c-3 -7 -5 -2 -5 12 0 14 2 19
5 13 2 -7 2 -19 0 -25z m-737 -19 c0 -17 -4 -28 -10 -24 -5 3 -10 17 -10 31 0
13 5 24 10 24 6 0 10 -14 10 -31z m-1180 7 c0 -11 -19 -15 -25 -6 -3 5 1 10 9
10 9 0 16 -2 16 -4z m-445 -248 c-5 -84 -9 -169 -9 -188 -1 -33 -3 -35 -31
-32 -16 2 -52 10 -80 17 -27 8 -68 19 -90 24 -29 6 -33 9 -15 10 27 1 38 14
83 104 16 31 33 57 38 57 5 0 9 4 9 10 0 15 84 149 94 150 5 0 5 -66 1 -152z
m271 127 c5 -21 12 -25 46 -25 23 0 37 -4 33 -10 -3 -5 -20 -10 -36 -10 -29 0
-30 -1 -23 -37 9 -50 11 -53 39 -53 13 0 27 -4 30 -10 4 -6 -7 -10 -25 -10
-27 0 -31 -3 -25 -17 4 -10 11 -31 17 -48 5 -16 14 -38 19 -48 5 -10 7 -21 5
-26 -3 -4 1 -17 9 -27 11 -15 14 -16 15 -4 0 13 1 13 10 0 13 -20 13 -43 0
-35 -5 3 -10 -4 -10 -15 0 -16 5 -20 15 -16 8 3 15 2 16 -2 0 -4 2 -14 4 -22
2 -8 9 -35 15 -60 6 -24 15 -49 19 -55 5 -5 14 -36 21 -67 16 -72 30 -75 23
-5 -11 108 -14 102 43 105 49 3 52 1 56 -23 4 -19 2 -25 -8 -21 -7 3 -16 1
-20 -5 -3 -5 -14 -7 -25 -4 -11 4 -19 2 -19 -4 0 -10 8 -12 64 -15 33 -2 31
-26 -3 -26 -16 0 -33 -5 -36 -11 -4 -6 -1 -10 6 -8 54 7 68 -1 80 -43 7 -24
13 -45 13 -48 1 -3 5 -11 10 -19 6 -10 5 -16 -2 -19 -7 -2 -12 -8 -12 -13 0
-6 4 -8 9 -4 5 3 24 -20 41 -50 17 -30 33 -55 34 -55 2 0 16 26 32 58 16 31
53 99 82 151 29 51 56 107 59 124 3 17 14 32 24 34 10 3 21 14 24 24 4 10 11
19 16 19 5 0 9 5 9 11 0 6 -9 8 -20 4 -11 -4 -20 -2 -20 4 0 11 13 15 36 12 6
-1 17 11 25 26 41 82 74 118 65 71 -3 -13 -10 -54 -16 -93 -13 -79 -30 -155
-39 -170 -3 -5 -5 -21 -5 -35 -1 -22 -6 -25 -43 -28 -24 -2 -43 -7 -43 -13 0
-8 42 -14 83 -11 34 3 15 -14 -49 -43 -63 -29 -92 -50 -82 -60 3 -3 19 0 37 6
29 10 34 9 62 -20 21 -22 28 -38 24 -51 -5 -16 -1 -20 17 -21 60 -3 128 -10
178 -20 79 -15 85 -15 83 -2 -2 7 12 20 30 29 17 9 52 33 76 53 29 23 46 32
48 24 3 -7 11 -13 18 -13 7 0 23 -8 35 -18 28 -23 18 -31 -68 -62 -95 -35 -92
-50 6 -31 33 7 46 5 58 -6 9 -9 26 -13 44 -11 17 3 30 1 30 -4 0 -4 -13 -8
-28 -8 -36 0 -40 -4 -34 -36 3 -16 9 -23 18 -20 8 3 14 1 14 -5 0 -6 -9 -13
-20 -16 -11 -3 -20 -10 -20 -15 0 -5 4 -7 9 -3 5 3 12 1 16 -5 3 -6 0 -13 -9
-16 -8 -3 -13 -14 -11 -26 7 -37 -78 -202 -153 -295 -34 -43 -115 -103 -138
-103 -7 0 -25 -5 -41 -11 -25 -9 -26 -11 -10 -20 17 -10 29 -8 92 17 37 15 -3
-23 -74 -70 -91 -60 -356 -169 -525 -217 -133 -38 -300 -79 -320 -79 -37 0
-209 111 -305 196 -25 22 -73 61 -106 86 -91 69 -257 247 -294 314 -29 54 -55
174 -37 174 3 0 17 -24 30 -52 59 -129 189 -288 235 -288 9 0 2 9 -17 20 -43
26 -112 136 -145 230 -45 131 -54 178 -81 433 -3 27 0 37 10 37 8 0 14 5 14
10 0 6 -7 10 -15 10 -8 0 -15 5 -15 10 0 6 9 10 20 10 13 0 20 7 20 19 0 27
-17 35 -29 14 -12 -20 -14 -13 -5 11 3 9 17 16 30 16 13 0 24 5 24 10 0 6 -13
10 -30 10 -27 0 -44 18 -20 21 21 3 26 5 53 23 18 12 24 22 18 30 -13 16 -18
65 -6 63 19 -4 75 -85 62 -91 -20 -8 7 -21 75 -35 35 -7 91 -18 126 -25 51
-11 62 -11 58 0 -3 7 8 17 27 23 17 6 40 20 52 30 30 27 52 32 59 14 4 -8 13
-13 21 -9 9 3 32 -12 60 -41 24 -26 47 -45 50 -42 3 3 -8 30 -25 60 -42 77
-39 86 18 53 41 -23 44 -24 28 -6 -10 12 -47 41 -82 64 -48 32 -64 49 -64 66
0 16 -4 21 -12 15 -15 -9 -56 -5 -80 8 -10 5 -14 16 -11 29 7 25 23 25 56 0
14 -11 40 -23 59 -26 18 -4 38 -11 44 -15 6 -5 28 -16 49 -25 58 -24 29 6 -34
36 -46 21 -50 26 -44 49 3 14 10 32 16 39 8 10 7 16 -4 23 -10 6 -10 9 -1 9 6
0 12 5 12 11 0 6 -16 9 -37 7 -36 -3 -38 -5 -41 -40 -3 -38 -20 -48 -49 -30
-14 9 -11 22 30 132 24 63 56 99 44 49 -3 -13 -8 -39 -12 -57 l-7 -33 44 3
c37 3 43 6 46 28 2 14 7 30 12 35 4 6 18 45 31 88 13 42 27 77 31 77 4 0 10
-11 14 -25z m749 15 c-3 -5 -11 -10 -16 -10 -6 0 -7 5 -4 10 3 6 11 10 16 10
6 0 7 -4 4 -10z m-965 -4 c0 -3 -4 -8 -10 -11 -5 -3 -10 -1 -10 4 0 6 5 11 10
11 6 0 10 -2 10 -4z m400 -42 c0 -2 -16 -4 -35 -4 -19 0 -35 4 -35 8 0 4 16 6
35 4 19 -2 35 -6 35 -8z m-1782 -24 c-12 -19 -28 -27 -28 -14 0 6 30 33 38 34
1 0 -3 -9 -10 -20z m1050 13 c-10 -2 -26 -2 -35 0 -10 3 -2 5 17 5 19 0 27 -2
18 -5z m1279 1 c-3 -3 -12 -4 -19 -1 -8 3 -5 6 6 6 11 1 17 -2 13 -5z m-948
-25 c-15 -9 -32 -2 -24 11 3 5 13 6 21 3 12 -4 13 -8 3 -14z m63 -11 c-7 -7
-12 -8 -12 -2 0 6 3 14 7 17 3 4 9 5 12 2 2 -3 -1 -11 -7 -17z m485 16 c-3 -3
-12 -4 -19 -1 -8 3 -5 6 6 6 11 1 17 -2 13 -5z m-868 -15 c39 -1 71 -5 71 -10
0 -9 -8 -10 -95 -13 -30 0 -50 -6 -50 -13 0 -6 -3 -15 -7 -19 -5 -4 -8 9 -8
30 0 20 4 35 9 32 5 -4 41 -7 80 -7z m621 1 c0 -5 -10 -10 -22 -10 -19 0 -20
2 -8 10 19 13 30 13 30 0z m100 1 c0 -5 -13 -11 -30 -13 -16 -3 -30 -1 -30 3
0 7 10 10 53 18 4 0 7 -3 7 -8z m-406 -58 c-7 -16 -14 -39 -14 -53 0 -14 -5
-32 -11 -40 -8 -11 -9 -5 -4 25 8 53 9 58 18 72 4 6 1 14 -5 16 -7 3 -3 6 9 6
21 1 21 0 7 -26z m-336 -15 c-5 -14 -68 -23 -68 -9 0 5 12 12 28 14 15 2 31 5
35 6 5 0 7 -4 5 -11z m60 0 c-2 -6 -14 -12 -26 -13 -28 -2 -28 3 1 15 29 12
29 12 25 -2z m652 -38 c4 0 11 10 16 23 6 18 8 14 11 -23 3 -34 0 -47 -13 -57
-16 -12 -16 -13 -1 -13 15 0 17 -12 17 -87 0 -49 3 -98 6 -110 4 -13 2 -23 -3
-23 -5 0 -17 51 -27 113 -10 61 -20 122 -23 135 -4 16 -1 22 13 23 17 1 17 2
2 6 -12 3 -18 13 -17 31 2 24 2 24 6 5 2 -13 8 -23 13 -23z m250 25 c0 -12
-14 -15 -70 -15 -44 0 -70 4 -70 11 0 7 21 10 59 7 33 -1 63 0 67 5 11 10 14
9 14 -8z m-170 -5 c0 -5 -4 -10 -10 -10 -5 0 -10 5 -10 10 0 6 5 10 10 10 6 0
10 -4 10 -10z m-759 -33 c-14 -17 -103 -17 -108 1 -4 9 12 12 57 12 51 0 60
-2 51 -13z m923 2 c21 0 46 -4 55 -9 17 -10 17 -10 -52 -15 -46 -3 -43 -15 4
-16 45 0 98 -16 69 -20 -8 -1 -35 -1 -60 0 -25 0 -61 -3 -80 -7 -29 -7 -19 -9
62 -15 53 -4 121 -4 151 -1 39 5 57 3 62 -6 6 -10 4 -12 -8 -7 -9 3 -30 0 -47
-7 -29 -12 -27 -12 35 -11 52 1 65 -2 63 -13 -2 -10 -17 -15 -48 -14 -91 0
-111 2 -105 11 11 19 -13 20 -30 1 -31 -34 -10 -43 86 -37 49 4 89 6 89 4 0
-1 -9 -29 -19 -62 -50 -159 -158 -405 -178 -405 -7 0 -13 5 -13 10 0 6 -9 29
-19 53 -29 64 -55 156 -97 352 -14 66 -28 129 -30 140 -3 11 -7 34 -9 51 -4
30 -4 30 38 26 23 -2 59 -4 81 -3z m622 -26 c4 -21 9 -42 12 -48 3 -5 7 -25 9
-44 2 -19 8 -40 12 -46 5 -5 12 -32 15 -58 4 -27 14 -67 22 -89 28 -79 33 -76
-138 -71 -84 3 -155 7 -157 9 -6 5 20 54 98 189 35 60 72 129 82 153 23 52 36
53 45 5z m-776 -5 c0 -5 -7 -8 -15 -8 -15 0 -20 21 -8 33 7 7 23 -11 23 -25z
m-140 7 c0 -9 -6 -12 -16 -8 -13 5 -13 7 -2 14 17 11 18 11 18 -6z m807 -2
c-9 -8 -87 -10 -92 -2 -3 4 14 9 37 11 43 3 63 0 55 -9z m-1457 -14 c0 -3 -7
-12 -16 -19 -12 -11 -18 -10 -34 6 -19 19 -19 19 15 20 19 0 35 -3 35 -7z m50
-9 c0 -5 -4 -10 -10 -10 -5 0 -10 5 -10 10 0 6 5 10 10 10 6 0 10 -4 10 -10z
m-980 -20 c0 -5 -8 -10 -17 -10 -15 0 -16 2 -3 10 19 12 20 12 20 0z m1723 -3
c4 3 7 -1 7 -9 0 -11 -6 -14 -20 -11 -11 3 -20 12 -20 20 0 12 3 13 13 4 8 -6
17 -8 20 -4z m602 3 c3 -5 -3 -10 -14 -10 -12 0 -21 5 -21 10 0 6 6 10 14 10
8 0 18 -4 21 -10z m-1455 -21 c0 -5 -4 -9 -10 -9 -5 0 -10 7 -10 16 0 8 5 12
10 9 6 -3 10 -10 10 -16z m1275 11 c-3 -5 -12 -7 -20 -3 -21 7 -19 13 6 13 11
0 18 -4 14 -10z m-555 -10 c0 -5 -2 -10 -4 -10 -3 0 -8 5 -11 10 -3 6 -1 10 4
10 6 0 11 -4 11 -10z m-1683 -31 c-9 -6 -17 -17 -17 -24 0 -8 -6 -15 -13 -15
-7 0 -35 -22 -63 -48 -35 -35 -56 -48 -72 -46 -12 2 -22 -1 -22 -6 0 -6 7 -10
15 -10 8 0 15 -4 15 -10 0 -9 -17 -15 -70 -23 -20 -4 -19 -5 8 -6 17 0 32 -5
32 -11 0 -5 -4 -10 -9 -10 -15 0 -256 -203 -359 -302 -20 -19 -238 -67 -302
-67 l-45 0 39 15 c22 8 47 20 55 27 9 7 30 19 46 26 38 16 165 110 165 122 0
5 5 9 11 9 6 0 18 9 28 21 15 19 41 25 131 29 23 1 23 2 5 10 -11 4 -23 5 -28
1 -4 -4 -21 -5 -37 -3 -25 3 -28 7 -19 18 6 8 22 14 35 14 13 0 24 4 24 10 0
5 -8 6 -17 3 -16 -6 -17 -5 -3 13 8 10 29 36 47 57 18 20 33 43 33 50 0 7 30
20 68 31 37 10 81 24 97 31 114 48 164 72 195 91 19 12 37 20 40 17 3 -2 -3
-9 -13 -14z m2403 11 c0 -5 -4 -10 -10 -10 -5 0 -10 5 -10 10 0 6 5 10 10 10
6 0 10 -4 10 -10z m-565 -10 c4 -6 -6 -10 -22 -10 -22 0 -25 2 -13 10 19 12
27 12 35 0z m5 -37 c0 -5 3 -18 6 -31 5 -17 3 -21 -9 -16 -10 3 -20 -2 -26
-15 -16 -29 -14 -33 17 -30 28 3 32 0 31 -28 0 -11 -3 -13 -6 -5 -2 6 -19 12
-37 12 -31 0 -33 2 -31 38 0 21 6 38 13 38 7 1 17 2 22 3 22 2 9 21 -15 21
-14 0 -25 5 -25 10 0 11 60 14 60 3z m545 -13 c3 -5 -1 -10 -10 -10 -9 0 -13
5 -10 10 3 6 8 10 10 10 2 0 7 -4 10 -10z m40 0 c-3 -5 -11 -10 -16 -10 -6 0
-7 5 -4 10 3 6 11 10 16 10 6 0 7 -4 4 -10z m-1505 -64 c-1 -29 -1 -30 -15
-12 -20 26 -20 57 0 50 9 -4 15 -19 15 -38z m1480 5 c0 -5 -11 -6 -24 -4 -16
3 -23 10 -19 19 4 10 10 11 24 3 10 -5 19 -13 19 -18z m-2820 -1 c-8 -6 -22
-10 -30 -9 -9 0 -5 6 10 14 27 14 44 10 20 -5z m1565 0 c3 -6 -1 -7 -9 -4 -18
7 -21 14 -7 14 6 0 13 -4 16 -10z m-45 -10 c0 -5 -4 -10 -10 -10 -5 0 -10 5
-10 10 0 6 5 10 10 10 6 0 10 -4 10 -10z m145 -21 c9 -14 -4 -27 -13 -13 -4 6
-14 14 -22 17 -10 4 -8 6 7 6 12 1 25 -4 28 -10z m1126 2 c6 10 9 8 9 -8 0
-21 -28 -58 -37 -49 -3 2 -2 20 3 38 4 18 9 27 12 19 4 -11 6 -11 13 0z
m-1181 -11 c0 -5 -4 -10 -10 -10 -5 0 -10 5 -10 10 0 6 5 10 10 10 6 0 10 -4
10 -10z m1649 6 c-11 -9 -69 -14 -69 -6 0 6 17 10 37 10 20 0 34 -2 32 -4z
m-1943 -43 c-7 -7 -26 7 -26 19 0 6 6 6 15 -2 9 -7 13 -15 11 -17z m309 7 c3
-5 1 -10 -4 -10 -6 0 -11 5 -11 10 0 6 2 10 4 10 3 0 8 -4 11 -10z m-1265 -35
c-7 -9 -10 -18 -6 -22 3 -3 -2 -15 -11 -26 -10 -10 -16 -21 -14 -24 7 -10 -54
-73 -71 -73 -12 0 -15 -5 -11 -15 8 -22 -25 -44 -67 -46 -34 -1 -34 -2 -7 -8
l28 -6 -37 -40 c-21 -22 -38 -43 -39 -48 0 -4 -15 -16 -33 -27 -18 -11 -35
-26 -38 -34 -3 -8 -32 -34 -65 -57 -32 -24 -59 -47 -59 -51 0 -5 -6 -8 -13 -8
-8 0 -22 -9 -31 -19 -10 -11 -28 -22 -42 -25 -13 -4 -24 -10 -24 -15 0 -13
-115 -66 -210 -97 -47 -15 -105 -36 -129 -46 -44 -18 -43 -17 57 86 55 57 119
131 143 163 23 32 43 59 44 61 1 1 31 10 66 18 35 9 71 18 79 21 8 4 17 7 20
7 3 1 11 5 17 9 7 4 35 15 62 23 49 14 149 76 164 101 4 7 21 20 38 28 34 18
179 159 179 175 0 5 5 10 11 10 8 0 7 -5 -1 -15z m2878 8 c-16 -2 -40 -2 -55
0 -16 2 -3 4 27 4 30 0 43 -2 28 -4z m-1914 -15 c-7 -11 -34 -10 -34 1 0 6 9
9 19 8 11 0 17 -5 15 -9z m1439 -8 c-3 -11 -10 -23 -16 -27 -7 -4 -8 0 -4 11
4 10 7 22 7 27 0 5 4 9 9 9 5 0 7 -9 4 -20z m1733 -118 c-12 -11 -45 12 -69
48 l-26 40 49 -41 c28 -23 48 -44 46 -47z m-1426 59 c19 -4 36 -13 38 -21 2
-13 -27 -15 -188 -15 -104 0 -190 2 -190 4 0 3 9 14 19 25 18 20 29 21 153 18
73 -2 149 -7 168 -11z m150 -17 c0 -2 -9 -4 -20 -4 -11 0 -20 4 -20 9 0 5 9 7
20 4 11 -3 20 -7 20 -9z m-2464 -9 c-22 -17 -46 -20 -46 -6 0 8 21 16 55 19 6
1 1 -5 -9 -13z m2391 9 c-3 -3 -12 -4 -19 -1 -8 3 -5 6 6 6 11 1 17 -2 13 -5z
m-2462 -14 c-3 -5 -12 -7 -20 -3 -21 7 -19 13 6 13 11 0 18 -4 14 -10z m2720
-10 c19 -8 19 -9 -2 -9 -12 -1 -25 4 -28 9 -7 12 2 12 30 0z m-2582 -40 c17
-7 8 -9 -35 -9 -31 -1 -59 3 -62 8 -7 11 69 12 97 1z m3727 -11 c20 -14 21
-19 8 -19 -23 0 -68 18 -68 28 0 15 36 10 60 -9z m-553 5 c-3 -3 -12 -4 -19
-1 -8 3 -5 6 6 6 11 1 17 -2 13 -5z m-3330 -30 c-3 -3 -12 -4 -19 -1 -8 3 -5
6 6 6 11 1 17 -2 13 -5z m56 -1 c-7 -2 -21 -2 -30 0 -10 3 -4 5 12 5 17 0 24
-2 18 -5z m2106 -14 c-24 -15 -45 -11 -24 5 11 8 24 12 28 9 5 -3 3 -9 -4 -14z
m121 -20 c0 -21 -62 -55 -80 -44 -6 4 -10 1 -10 -4 0 -16 -21 -13 -42 6 -23
21 -23 32 2 32 11 1 29 1 40 2 11 0 20 4 20 9 0 8 22 15 58 19 6 0 12 -8 12
-20z m417 5 c-3 -3 -12 -4 -19 -1 -8 3 -5 6 6 6 11 1 17 -2 13 -5z m756 -11
c-7 -2 -19 -2 -25 0 -7 3 -2 5 12 5 14 0 19 -2 13 -5z m64 1 c-3 -3 -12 -4
-19 -1 -8 3 -5 6 6 6 11 1 17 -2 13 -5z m-3361 -83 c-5 -8 -56 -3 -56 5 0 2
14 4 31 4 16 0 28 -4 25 -9z m-41 -41 c-3 -5 -15 -10 -25 -10 -10 0 -22 5 -25
10 -4 6 7 10 25 10 18 0 29 -4 25 -10z m2480 0 c-3 -5 -13 -10 -21 -10 -8 0
-12 5 -9 10 3 6 13 10 21 10 8 0 12 -4 9 -10z m165 -4 c14 -2 -12 -4 -58 -5
-46 0 -81 2 -79 7 5 6 77 6 137 -2z m-2583 -12 c-3 -3 -12 -4 -19 -1 -8 3 -5
6 6 6 11 1 17 -2 13 -5z m2683 -24 c0 -6 -26 -9 -62 -8 l-63 1 55 7 c30 4 58
7 63 8 4 1 7 -2 7 -8z m788 3 c-10 -2 -26 -2 -35 0 -10 3 -2 5 17 5 19 0 27
-2 18 -5z m-965 -10 c-13 -2 -33 -2 -45 0 -13 2 -3 4 22 4 25 0 35 -2 23 -4z
m987 -53 c11 -11 20 -23 20 -28 0 -4 14 -23 32 -42 18 -19 31 -40 30 -46 -1
-6 11 -17 27 -24 29 -12 45 -39 41 -73 -1 -9 14 -36 33 -60 19 -23 58 -89 87
-147 28 -57 78 -144 110 -192 60 -91 64 -113 9 -53 -18 19 -40 35 -50 35 -12
0 -16 5 -13 14 10 25 -53 78 -90 76 -48 -3 -55 2 -13 9 38 6 38 6 20 26 -72
82 -168 225 -149 225 13 0 13 4 0 29 -8 17 -24 33 -35 36 -11 4 -25 18 -31 31
-6 13 -15 24 -20 24 -4 0 -8 9 -8 19 0 11 -10 27 -22 35 -12 9 -17 16 -10 16
19 0 14 16 -14 50 -27 31 -27 31 -5 37 11 3 21 9 21 14 0 14 8 11 30 -11z
m-3210 -30 c12 -8 12 -10 -5 -9 -11 0 -29 4 -40 9 -18 8 -18 9 5 9 14 0 32 -4
40 -9z m118 -41 c-3 -9 -27 -12 -79 -10 -104 3 -107 17 -3 20 64 1 85 -1 82
-10z m-1190 -6 c-10 -2 -26 -2 -35 0 -10 3 -2 5 17 5 19 0 27 -2 18 -5z m3355
0 c-7 -2 -19 -2 -25 0 -7 3 -2 5 12 5 14 0 19 -2 13 -5z m-2193 -26 c0 -9 -10
-12 -30 -9 -16 2 -30 8 -30 13 0 5 14 9 30 9 18 0 30 -5 30 -13z m2285 3 c4
-7 -6 -9 -30 -7 -48 6 -57 17 -12 17 20 0 39 -5 42 -10z m-2255 -9 c0 -6 -4
-13 -10 -16 -5 -3 -10 1 -10 9 0 9 5 16 10 16 6 0 10 -4 10 -9z m-530 -45 c0
-9 -30 -14 -35 -6 -4 6 3 10 14 10 12 0 21 -2 21 -4z m530 -17 c0 -5 -4 -9
-10 -9 -5 0 -10 7 -10 16 0 8 5 12 10 9 6 -3 10 -10 10 -16z m100 1 c0 -5 -2
-10 -4 -10 -3 0 -8 5 -11 10 -3 6 -1 10 4 10 6 0 11 -4 11 -10z m3187 4 c-3
-3 -12 -4 -19 -1 -8 3 -5 6 6 6 11 1 17 -2 13 -5z m-4574 -31 c-13 -2 -33 -2
-45 0 -13 2 -3 4 22 4 25 0 35 -2 23 -4z m935 0 c-16 -2 -40 -2 -55 0 -16 2
-3 4 27 4 30 0 43 -2 28 -4z m275 -60 c-7 -2 -19 -2 -25 0 -7 3 -2 5 12 5 14
0 19 -2 13 -5z m2465 0 c-10 -2 -26 -2 -35 0 -10 3 -2 5 17 5 19 0 27 -2 18
-5z m-2423 -93 c-28 -12 -55 -12 -55 0 0 6 17 10 38 9 30 0 33 -2 17 -9z
m1909 -12 c-3 -4 -14 -8 -25 -8 -11 0 -18 4 -14 9 3 6 14 9 25 8 10 -1 16 -5
14 -9z m183 6 c-3 -3 -12 -4 -19 -1 -8 3 -5 6 6 6 11 1 17 -2 13 -5z m-227
-33 c0 -5 -7 -11 -14 -14 -10 -4 -13 -1 -9 9 6 15 23 19 23 5z m1390 -31 c0
-13 -20 -13 -40 0 -12 8 -9 10 13 10 15 0 27 -4 27 -10z m-972 -77 c-10 -2
-26 -2 -35 0 -10 3 -2 5 17 5 19 0 27 -2 18 -5z m49 1 c-3 -3 -12 -4 -19 -1
-8 3 -5 6 6 6 11 1 17 -2 13 -5z m-2339 -31 c-10 -2 -26 -2 -35 0 -10 3 -2 5
17 5 19 0 27 -2 18 -5z m2185 0 c-7 -2 -19 -2 -25 0 -7 3 -2 5 12 5 14 0 19
-2 13 -5z m690 0 c-7 -2 -19 -2 -25 0 -7 3 -2 5 12 5 14 0 19 -2 13 -5z
m-2500 -95 c21 -21 41 -38 44 -38 9 0 113 -85 113 -92 0 -4 -23 6 -51 23 -55
35 -209 175 -209 192 0 10 13 -1 103 -85z m-1273 72 c0 -13 -11 -13 -30 0 -12
8 -11 10 8 10 12 0 22 -4 22 -10z m3095 -25 c6 -2 -23 -4 -63 -4 -40 -1 -71 3
-68 7 5 8 107 5 131 -3z m1155 -5 c0 -5 -8 -10 -17 -10 -15 0 -16 2 -3 10 19
12 20 12 20 0z m-4307 -17 c-7 -2 -19 -2 -25 0 -7 3 -2 5 12 5 14 0 19 -2 13
-5z m-28 -23 c-3 -5 -12 -10 -18 -10 -7 0 -6 4 3 10 19 12 23 12 15 0z m3772
-6 c-3 -3 -12 -4 -19 -1 -8 3 -5 6 6 6 11 1 17 -2 13 -5z m673 -34 c11 -7 8
-10 -15 -9 -16 0 -39 4 -50 9 -16 7 -14 9 15 9 19 0 42 -4 50 -9z m-3827 -7
c-7 -2 -21 -2 -30 0 -10 3 -4 5 12 5 17 0 24 -2 18 -5z m2610 0 c-7 -2 -19 -2
-25 0 -7 3 -2 5 12 5 14 0 19 -2 13 -5z m-748 -43 c3 -5 1 -10 -4 -10 -6 0
-11 5 -11 10 0 6 2 10 4 10 3 0 8 -4 11 -10z m1095 -4 c0 -3 -4 -8 -10 -11 -5
-3 -10 -1 -10 4 0 6 5 11 10 11 6 0 10 -2 10 -4z m-1155 -16 c-3 -5 -14 -10
-23 -9 -14 0 -13 2 3 9 27 11 27 11 20 0z m89 -15 c-7 -16 -24 -21 -24 -6 0 8
7 13 27 20 1 1 0 -6 -3 -14z m-2216 0 c-10 -11 -78 -15 -78 -5 0 6 19 10 42
10 23 0 39 -2 36 -5z m3627 -15 c3 -5 -1 -10 -10 -10 -9 0 -13 5 -10 10 3 6 8
10 10 10 2 0 7 -4 10 -10z m-1340 -22 c7 -8 4 -9 -8 -4 -10 3 -45 6 -78 6 -32
0 -59 4 -59 9 0 12 133 1 145 -11z m-2053 -15 c-5 -10 -12 -35 -16 -55 -7 -39
-11 -42 -91 -57 -27 -5 -58 -13 -67 -16 -36 -14 -16 11 26 33 24 13 68 45 98
72 55 49 66 55 50 23z m2198 17 c8 -5 13 -10 10 -11 -43 -8 -60 -2 -43 14 9 9
15 9 33 -3z m-403 -25 c-4 -8 -11 -15 -17 -15 -6 0 -6 7 2 20 14 22 24 19 15
-5z m823 15 c0 -5 -4 -10 -10 -10 -5 0 -10 5 -10 10 0 6 5 10 10 10 6 0 10 -4
10 -10z m-725 -20 c4 -6 -12 -10 -40 -10 -28 0 -44 4 -40 10 3 6 21 10 40 10
19 0 37 -4 40 -10z m392 4 c-3 -3 -12 -4 -19 -1 -8 3 -5 6 6 6 11 1 17 -2 13
-5z m-232 -14 c-3 -5 -10 -10 -16 -10 -5 0 -9 5 -9 10 0 6 7 10 16 10 8 0 12
-4 9 -10z m-1660 -87 c49 -115 126 -274 175 -364 22 -39 40 -75 40 -79 0 -4
-19 -1 -42 6 -40 13 -213 66 -230 70 -5 1 -12 2 -16 3 -22 3 -90 254 -94 345
l-3 60 60 22 c33 12 63 23 66 23 4 1 24 -38 44 -86z m3015 69 c0 -4 -30 -5
-67 -2 l-68 4 60 6 c61 5 75 4 75 -8z m-3703 2 c-3 -3 -12 -4 -19 -1 -8 3 -5
6 6 6 11 1 17 -2 13 -5z m90 0 c-3 -3 -12 -4 -19 -1 -8 3 -5 6 6 6 11 1 17 -2
13 -5z m2273 -9 c0 -11 -303 -21 -320 -10 -6 4 -8 11 -4 16 8 13 324 7 324 -6z
m518 -2 c-10 -2 -26 -2 -35 0 -10 3 -2 5 17 5 19 0 27 -2 18 -5z m-418 -29 l0
-27 -137 6 c-76 4 -151 7 -166 7 -16 0 -26 4 -22 9 6 11 269 6 299 -5 16 -6
18 -4 14 14 -4 12 -2 22 3 22 5 0 9 -12 9 -26z m690 6 c0 -5 -2 -10 -4 -10 -3
0 -8 5 -11 10 -3 6 -1 10 4 10 6 0 11 -4 11 -10z m560 -10 c0 -5 -2 -10 -4
-10 -3 0 -8 5 -11 10 -3 6 -1 10 4 10 6 0 11 -4 11 -10z m17 -57 c2 -6 -2 -13
-10 -16 -8 -3 -13 3 -14 15 -2 20 18 21 24 1z m-1089 -32 c2 -13 -1 -28 -7
-34 -17 -17 -24 -1 -9 22 11 18 11 23 -2 32 -13 9 -13 10 0 6 8 -2 17 -14 18
-26z m1022 8 c0 -4 -11 -9 -25 -11 -23 -5 -32 2 -20 13 7 7 45 5 45 -2z m-80
-15 c0 -2 -7 -4 -15 -4 -8 0 -15 4 -15 10 0 5 7 7 15 4 8 -4 15 -8 15 -10z
m170 -31 c0 -16 -4 -21 -15 -17 -8 4 -15 1 -15 -6 0 -6 10 -10 21 -8 18 2 28
-9 55 -59 l34 -62 -54 19 c-81 28 -102 40 -85 52 10 7 8 8 -7 4 -21 -6 -78 17
-90 36 -5 7 -2 8 5 4 19 -12 103 3 98 17 -3 7 -11 10 -18 8 -41 -12 -127 -10
-137 2 -9 11 -6 13 18 9 16 -2 43 3 61 12 18 9 49 16 71 16 24 0 38 5 38 13 0
22 20 -17 20 -40z m-3250 -23 c0 -5 -7 -10 -15 -10 -8 0 -15 5 -15 10 0 6 7
10 15 10 8 0 15 -4 15 -10z m2120 -7 c0 -5 -5 -15 -10 -23 -8 -12 -10 -11 -10
8 0 12 5 22 10 22 6 0 10 -3 10 -7z m-30 -109 c-17 -51 -23 -35 -8 22 7 27 14
41 16 31 2 -9 -2 -33 -8 -53z m70 62 c0 -3 -4 -8 -10 -11 -5 -3 -10 -1 -10 4
0 6 5 11 10 11 6 0 10 -2 10 -4z m17 -92 c-3 -3 -12 -4 -19 -1 -8 3 -5 6 6 6
11 1 17 -2 13 -5z m373 -79 c0 -8 4 -15 9 -15 5 0 11 -10 14 -21 6 -21 5 -21
-19 2 -24 23 -32 49 -14 49 6 0 10 -7 10 -15z m126 -22 c-10 -10 -19 5 -10 18
6 11 8 11 12 0 2 -7 1 -15 -2 -18z m54 23 c0 -3 -4 -8 -10 -11 -5 -3 -10 -1
-10 4 0 6 5 11 10 11 6 0 10 -2 10 -4z m-2290 -31 c0 -7 -30 -13 -34 -7 -3 4
4 9 15 9 10 1 19 0 19 -2z m2300 -57 c0 -6 -6 -5 -15 2 -8 7 -15 14 -15 16 0
2 7 1 15 -2 8 -4 15 -11 15 -16z m-231 -13 c2 -11 8 -23 15 -27 8 -5 8 -8 0
-8 -16 0 -54 35 -54 49 0 20 34 7 39 -14z m121 -11 c0 -19 -4 -33 -9 -29 -5 3
-8 18 -6 33 4 34 4 32 10 32 3 0 5 -16 5 -36z m-2170 1 c0 -8 -2 -15 -4 -15
-2 0 -6 7 -10 15 -3 8 -1 15 4 15 6 0 10 -7 10 -15z m2240 -15 c0 -5 -4 -10
-9 -10 -6 0 -13 5 -16 10 -3 6 1 10 9 10 9 0 16 -4 16 -10z m90 -4 c0 -3 -4
-8 -10 -11 -5 -3 -10 -1 -10 4 0 6 5 11 10 11 6 0 10 -2 10 -4z m-250 -26 c21
14 30 12 30 -5 0 -14 -29 -35 -49 -35 -6 0 -11 7 -11 15 0 8 -7 15 -15 15 -8
0 -15 7 -15 15 0 14 3 14 23 1 15 -10 27 -12 37 -6z m305 -3 c-4 -8 -16 -17
-27 -20 -19 -5 -19 -5 3 19 24 26 33 26 24 1z m163 -78 c-1 -36 -2 -38 -5 -12
-4 30 -6 31 -29 23 -41 -16 -52 -11 -16 7 41 20 40 49 -2 46 -27 -2 -28 -1
-11 17 17 19 18 18 41 -9 18 -22 24 -40 22 -72z m-128 47 c0 -20 -37 -48 -57
-43 -15 4 -15 5 3 6 28 1 46 24 37 46 -4 13 -3 16 5 11 7 -4 12 -13 12 -20z
m30 -37 c0 -5 -7 -9 -15 -9 -15 0 -20 12 -9 23 8 8 24 -1 24 -14z m-30 -39 c0
-5 -4 -10 -10 -10 -5 0 -10 5 -10 10 0 6 5 10 10 10 6 0 10 -4 10 -10z m105 0
c3 -5 1 -10 -4 -10 -6 0 -11 5 -11 10 0 6 2 10 4 10 3 0 8 -4 11 -10z m-107
-45 c-12 -26 -19 -29 -55 -19 -32 9 -29 24 5 24 15 0 34 5 42 10 21 13 21 13
8 -15z m52 -15 c0 -5 -4 -10 -10 -10 -5 0 -10 5 -10 10 0 6 5 10 10 10 6 0 10
-4 10 -10z m80 -10 c0 -5 -8 -10 -17 -10 -15 0 -16 2 -3 10 19 12 20 12 20 0z
m-100 -16 c0 -3 -16 -12 -35 -20 -19 -8 -35 -19 -35 -24 0 -7 7 -7 20 0 13 7
20 7 20 1 0 -28 -70 -40 -90 -16 -10 12 -9 15 6 15 14 0 15 3 6 12 -12 12 12
20 101 37 4 0 7 -1 7 -5z m-200 -22 c0 -13 -12 -22 -22 -16 -10 6 -1 24 13 24
5 0 9 -4 9 -8z"/>
<path d="M4484 5325 c16 -12 17 -17 6 -30 -15 -18 -9 -28 13 -19 10 3 13 12 9
22 -5 15 -4 15 11 3 14 -11 18 -11 23 5 4 11 9 22 11 27 2 4 -17 7 -44 7 -44
-1 -46 -2 -29 -15z"/>
<path d="M4576 5325 c-3 -8 -2 -15 3 -15 5 0 14 7 21 15 10 12 10 15 -3 15 -8
0 -17 -7 -21 -15z"/>
<path d="M4168 5293 c6 -2 18 -2 25 0 6 3 1 5 -13 5 -14 0 -19 -2 -12 -5z"/>
<path d="M4320 5274 c0 -12 3 -14 13 -6 6 6 28 12 47 15 30 3 28 4 -12 5 -38
2 -48 -1 -48 -14z"/>
<path d="M4448 5283 c7 -3 16 -2 19 1 4 3 -2 6 -13 5 -11 0 -14 -3 -6 -6z"/>
<path d="M4340 5250 c0 -5 5 -10 11 -10 5 0 7 5 4 10 -3 6 -8 10 -11 10 -2 0
-4 -4 -4 -10z"/>
<path d="M4424 5241 c-5 -5 -56 -13 -114 -16 -58 -4 -108 -9 -112 -12 -5 -2
-13 -1 -20 3 -18 11 -123 8 -145 -5 -21 -12 167 -14 304 -3 73 6 116 22 102
37 -3 2 -10 1 -15 -4z"/>
<path d="M3950 5220 c0 -5 5 -10 11 -10 5 0 7 5 4 10 -3 6 -8 10 -11 10 -2 0
-4 -4 -4 -10z"/>
<path d="M3810 5210 c-8 -5 -11 -12 -7 -17 5 -4 11 -3 15 3 4 6 21 11 39 10
17 -1 29 2 26 7 -6 10 -55 9 -73 -3z"/>
<path d="M4310 5184 c-19 -10 -70 -14 -204 -14 -99 0 -176 -3 -173 -6 4 -4 89
-7 191 -6 177 0 226 7 226 32 0 13 -9 11 -40 -6z"/>
<path d="M3768 5163 c7 -3 16 -2 19 1 4 3 -2 6 -13 5 -11 0 -14 -3 -6 -6z"/>
<path d="M4511 5196 c-10 -12 -8 -13 8 -9 12 3 21 9 21 14 0 14 -16 11 -29 -5z"/>
<path d="M4688 5203 c7 -3 16 -2 19 1 4 3 -2 6 -13 5 -11 0 -14 -3 -6 -6z"/>
<path d="M4575 5160 c-7 -11 -1 -13 34 -10 14 1 21 -2 17 -9 -5 -8 18 -11 74
-11 61 0 81 -3 77 -12 -4 -12 20 -37 36 -38 12 0 7 24 -8 45 -11 14 -25 18
-51 17 -24 -2 -33 1 -29 9 4 6 16 9 26 6 10 -3 21 -2 24 3 3 4 -40 8 -95 9
-55 0 -102 -4 -105 -9z m92 -16 c-3 -3 -12 -4 -19 -1 -8 3 -5 6 6 6 11 1 17
-2 13 -5z"/>
<path d="M4386 5112 c-4 -7 -11 -10 -16 -7 -4 3 -16 2 -27 -2 -11 -5 20 -10
77 -13 52 -3 99 -2 105 2 5 4 -5 8 -22 8 -18 0 -35 5 -39 11 -4 8 -9 7 -15 -2
-7 -11 -9 -11 -9 -1 0 9 -5 10 -19 2 -14 -7 -21 -6 -23 2 -3 9 -6 9 -12 0z"/>
<path d="M4725 5100 c-3 -5 -2 -10 4 -10 5 0 12 -8 14 -17 3 -11 5 -7 6 10 1
27 -12 36 -24 17z"/>
<path d="M4550 5090 c-9 -6 -10 -10 -3 -10 6 0 15 5 18 10 8 12 4 12 -15 0z"/>
<path d="M4273 5045 c0 -9 9 -12 26 -9 55 9 132 11 137 3 9 -15 76 -11 71 4
-6 19 -234 21 -234 2z"/>
<path d="M4808 5053 c6 -2 18 -2 25 0 6 3 1 5 -13 5 -14 0 -19 -2 -12 -5z"/>
<path d="M4535 5040 c-3 -5 -1 -10 4 -10 6 0 11 5 11 10 0 6 -2 10 -4 10 -3 0
-8 -4 -11 -10z"/>
<path d="M4395 5010 c-4 -6 8 -10 29 -10 20 0 36 5 36 10 0 6 -13 10 -29 10
-17 0 -33 -4 -36 -10z"/>
<path d="M4824 5009 c-2 -4 0 -10 6 -14 11 -7 30 2 30 14 0 10 -29 10 -36 0z"/>
<path d="M4207 4998 c-7 -5 -1 -8 13 -8 14 0 31 4 39 9 10 7 6 9 -13 8 -15 -1
-33 -5 -39 -9z"/>
<path d="M4302 4919 c-31 -12 -28 -14 24 -16 31 -1 44 2 41 10 -4 14 -35 17
-65 6z"/>
<path d="M4101 4911 c-12 -8 -12 -12 -2 -24 14 -18 0 -30 -24 -21 -13 5 -14 9
-4 15 8 4 11 10 8 13 -3 3 -15 -5 -28 -17 l-22 -24 69 0 c38 0 74 -3 80 -7 7
-4 12 -2 12 3 0 6 -6 11 -14 11 -8 0 -17 6 -20 13 -5 10 -7 10 -12 0 -9 -21
-21 -15 -26 12 -4 16 0 25 11 28 13 4 13 5 1 6 -8 0 -21 -3 -29 -8z"/>
<path d="M4160 4910 c-8 -5 -11 -12 -7 -16 4 -4 15 0 24 9 18 18 8 23 -17 7z"/>
<path d="M4210 4910 c0 -5 6 -10 14 -10 8 0 18 5 21 10 3 6 -3 10 -14 10 -12
0 -21 -4 -21 -10z"/>
<path d="M4385 4890 c-3 -6 1 -7 9 -4 18 7 21 14 7 14 -6 0 -13 -4 -16 -10z"/>
<path d="M4847 4873 c-3 -5 6 -9 20 -10 19 -1 22 1 12 8 -17 11 -26 11 -32 2z"/>
<path d="M5546 4863 c-3 -3 -28 -5 -55 -5 -44 1 -50 -1 -48 -18 1 -22 41 -29
52 -10 5 8 11 8 20 0 9 -8 14 -6 19 6 5 13 15 15 51 11 32 -4 43 -2 39 6 -4
12 -68 20 -78 10z"/>
<path d="M5360 4856 c0 -2 16 -6 35 -8 19 -2 35 0 35 4 0 4 -16 8 -35 8 -19 0
-35 -2 -35 -4z"/>
<path d="M4210 4840 c0 -5 5 -10 10 -10 6 0 10 5 10 10 0 6 -4 10 -10 10 -5 0
-10 -4 -10 -10z"/>
<path d="M4290 4840 c0 -5 7 -10 15 -10 8 0 15 5 15 10 0 6 -7 10 -15 10 -8 0
-15 -4 -15 -10z"/>
<path d="M3986 4821 c-3 -5 1 -14 9 -21 17 -14 11 -32 -9 -24 -7 3 -21 -6 -30
-20 -9 -15 -12 -26 -6 -26 5 0 10 5 10 11 0 6 6 9 14 6 7 -3 22 0 32 7 19 13
62 15 80 4 12 -8 81 -9 117 -2 55 11 25 22 -57 21 -80 -2 -108 4 -92 20 4 4
39 6 78 4 48 -2 68 1 63 8 -3 6 -32 11 -64 11 -43 0 -65 -5 -84 -20 -22 -17
-26 -18 -31 -4 -3 8 -2 12 4 9 6 -3 10 1 10 9 0 17 -35 22 -44 7z"/>
<path d="M3946 4784 c-20 -19 -20 -25 -2 -18 8 3 17 12 20 20 7 18 1 18 -18
-2z"/>
<path d="M5108 4763 c-22 -5 -23 -19 -2 -27 8 -3 12 -2 9 4 -3 6 3 10 14 10
11 0 22 4 25 8 5 9 -19 11 -46 5z"/>
<path d="M4145 4720 c-3 -5 1 -10 9 -10 9 0 16 5 16 10 0 6 -4 10 -9 10 -6 0
-13 -4 -16 -10z"/>
<path d="M4003 4713 c-102 -6 -75 -24 32 -22 52 1 95 6 95 12 0 5 -7 7 -15 3
-8 -3 -15 -1 -15 4 0 6 -8 9 -17 8 -10 -1 -46 -3 -80 -5z"/>
<path d="M4905 4710 c28 -12 45 -12 45 0 0 6 -15 10 -32 9 -28 0 -30 -2 -13
-9z"/>
<path d="M5060 4710 c-8 -5 -11 -12 -8 -15 4 -4 17 0 30 9 24 17 5 23 -22 6z"/>
<path d="M5110 4700 c-12 -8 -11 -10 8 -10 12 0 22 5 22 10 0 13 -11 13 -30 0z"/>
<path d="M3815 4671 c-8 -7 56 -32 66 -25 19 11 8 22 -26 26 -20 2 -38 2 -40
-1z"/>
<path d="M3922 4659 c-17 -6 94 -25 113 -20 6 2 27 4 48 6 21 1 40 5 43 8 8 8
-183 13 -204 6z"/>
<path d="M5030 4655 c6 -7 20 -11 32 -9 13 1 29 3 36 3 6 1 12 5 12 9 0 4 -20
8 -44 8 -32 0 -42 -4 -36 -11z"/>
<path d="M5000 4653 c5 -2 8 -9 4 -14 -3 -5 0 -9 6 -9 15 0 7 23 -8 26 -7 1
-8 0 -2 -3z"/>
<path d="M4930 4642 c0 -12 19 -26 26 -19 2 2 -2 10 -11 17 -9 8 -15 8 -15 2z"/>
<path d="M3770 4630 c-7 -4 25 -8 70 -9 46 -1 82 0 79 3 -9 8 -138 13 -149 6z"/>
<path d="M3948 4613 c12 -2 30 -2 40 0 9 3 -1 5 -23 4 -22 0 -30 -2 -17 -4z"/>
<path d="M5015 4610 c-3 -5 1 -10 9 -10 8 0 18 5 21 10 3 6 -1 10 -9 10 -8 0
-18 -4 -21 -10z"/>
<path d="M3740 4595 c-8 -10 1 -14 40 -19 29 -4 48 -11 45 -16 -4 -6 38 -10
109 -10 64 0 116 4 116 9 0 8 -124 21 -205 21 -22 0 -52 6 -67 14 -22 12 -29
12 -38 1z"/>
<path d="M3743 4538 c35 -8 52 -7 60 1 8 8 -5 11 -48 10 l-60 -1 48 -10z"/>
<path d="M3665 4520 c-7 -11 58 -20 70 -9 5 6 5 9 0 10 -6 0 -22 2 -37 4 -15
2 -30 0 -33 -5z"/>
<path d="M3770 4509 c0 -5 45 -29 55 -29 2 0 2 6 0 13 -4 9 7 11 42 8 38 -3
43 -6 23 -11 -23 -6 -21 -7 14 -13 42 -7 56 -3 55 16 0 9 -2 9 -6 0 -8 -22
-25 -14 -18 8 6 19 4 20 -79 17 -47 -2 -86 -6 -86 -9z"/>
<path d="M3950 4516 c0 -2 7 -7 16 -10 8 -3 12 -2 9 4 -6 10 -25 14 -25 6z"/>
<path d="M3990 4510 c0 -5 5 -10 10 -10 6 0 10 5 10 10 0 6 -4 10 -10 10 -5 0
-10 -4 -10 -10z"/>
<path d="M3665 4483 c-22 -3 -44 -9 -50 -15 -7 -7 -2 -9 17 -6 16 3 25 1 22
-6 -3 -7 12 -12 38 -13 24 -1 80 -5 126 -9 56 -4 82 -2 82 5 0 12 -3 13 -115
15 -46 0 -80 5 -80 11 0 6 15 10 33 10 17 0 32 3 32 8 0 7 -31 7 -105 0z"/>
<path d="M3583 4403 c8 -7 119 -5 126 3 2 2 -26 4 -64 4 -38 0 -65 -3 -62 -7z"/>
<path d="M3740 4400 c0 -6 11 -10 25 -10 14 0 25 4 25 8 0 4 -11 9 -25 10 -14
1 -25 -3 -25 -8z"/>
<path d="M3623 4353 c-19 -12 -23 -13 -23 -2 0 11 -2 11 -9 0 -9 -15 -36 -22
-78 -21 -13 0 -23 -5 -23 -10 0 -7 18 -8 53 -3 28 4 76 8 105 8 28 -1 52 3 52
7 0 4 -9 8 -20 8 -11 0 -20 7 -20 15 0 19 -9 18 -37 -2z"/>
<path d="M3841 4360 c-9 -5 -8 -9 4 -14 26 -10 47 -7 43 6 -5 14 -31 19 -47 8z"/>
<path d="M3775 4351 c-3 -5 -1 -12 5 -16 5 -3 10 1 10 9 0 18 -6 21 -15 7z"/>
<path d="M3866 4311 c-4 -7 -5 -15 -2 -18 9 -9 19 4 14 18 -4 11 -6 11 -12 0z"/>
<path d="M3775 4300 c3 -5 8 -10 11 -10 2 0 4 5 4 10 0 6 -5 10 -11 10 -5 0
-7 -4 -4 -10z"/>
<path d="M3815 4300 c27 -12 35 -12 35 0 0 6 -12 10 -27 9 -25 0 -26 -1 -8 -9z"/>
<path d="M3535 4280 c-3 -5 -1 -10 4 -10 6 0 11 5 11 10 0 6 -2 10 -4 10 -3 0
-8 -4 -11 -10z"/>
<path d="M3704 4259 c25 -6 49 -6 65 0 21 8 13 9 -39 9 -62 0 -63 0 -26 -9z"/>
<path d="M3470 4250 c-8 -5 -10 -10 -5 -10 6 0 17 5 25 10 8 5 11 10 5 10 -5
0 -17 -5 -25 -10z"/>
<path d="M3800 4256 c0 -2 9 -6 20 -9 11 -3 20 -1 20 4 0 5 -9 9 -20 9 -11 0
-20 -2 -20 -4z"/>
<path d="M3715 4219 c49 -5 93 -5 97 -1 5 5 -36 9 -89 9 l-98 1 90 -9z"/>
<path d="M3518 4213 c6 -2 18 -2 25 0 6 3 1 5 -13 5 -14 0 -19 -2 -12 -5z"/>
<path d="M3570 4210 c20 -13 33 -13 25 0 -3 6 -14 10 -23 10 -15 0 -15 -2 -2
-10z"/>
<path d="M3427 4203 c-4 -3 -7 -11 -7 -17 0 -6 5 -5 12 2 6 6 9 14 7 17 -3 3
-9 2 -12 -2z"/>
<path d="M3780 4182 c0 -7 -7 -9 -17 -5 -15 5 -16 3 -5 -8 9 -10 15 -10 24 -1
6 6 9 15 5 19 -4 3 -7 1 -7 -5z"/>
<path d="M3614 4153 c-28 -12 -27 -12 29 -13 31 0 57 4 57 9 0 15 -55 18 -86
4z"/>
<path d="M3498 4143 c12 -2 30 -2 40 0 9 3 -1 5 -23 4 -22 0 -30 -2 -17 -4z"/>
<path d="M3343 4111 c-15 -23 -15 -24 8 -17 13 4 35 7 49 7 19 -1 26 4 26 17
0 29 -62 24 -83 -7z"/>
<path d="M3445 4130 c-12 -20 7 -30 58 -29 56 1 54 4 -6 14 -21 3 -35 10 -32
16 4 5 2 9 -4 9 -5 0 -13 -4 -16 -10z"/>
<path d="M3726 4118 c3 -5 12 -7 20 -4 8 3 14 1 14 -4 0 -15 17 -12 23 5 5 11
-2 14 -28 13 -19 -1 -32 -5 -29 -10z"/>
<path d="M3390 4018 c0 -4 9 -8 20 -8 11 0 20 4 20 8 0 4 -9 8 -20 8 -11 0
-20 -4 -20 -8z"/>
<path d="M3520 4023 c0 -5 14 -9 30 -10 17 -1 30 2 30 7 0 6 -13 10 -30 10
-16 0 -30 -3 -30 -7z"/>
<path d="M3660 4020 c0 -5 5 -10 10 -10 6 0 10 5 10 10 0 6 -4 10 -10 10 -5 0
-10 -4 -10 -10z"/>
<path d="M3700 4020 c0 -6 7 -10 15 -10 8 0 15 2 15 4 0 2 -7 6 -15 10 -8 3
-15 1 -15 -4z"/>
<path d="M3465 3940 c-3 -5 -1 -10 4 -10 6 0 11 5 11 10 0 6 -2 10 -4 10 -3 0
-8 -4 -11 -10z"/>
<path d="M3335 3920 l-30 -8 27 -1 c15 0 30 4 33 9 3 6 5 9 3 9 -2 -1 -16 -5
-33 -9z"/>
<path d="M3330 3869 c0 -5 5 -7 10 -4 6 3 10 8 10 11 0 2 -4 4 -10 4 -5 0 -10
-5 -10 -11z"/>
<path d="M3280 3860 c0 -5 5 -10 10 -10 6 0 10 5 10 10 0 6 -4 10 -10 10 -5 0
-10 -4 -10 -10z"/>
<path d="M3640 3780 c0 -5 5 -10 10 -10 6 0 10 5 10 10 0 6 -4 10 -10 10 -5 0
-10 -4 -10 -10z"/>
<path d="M3550 3760 c0 -5 5 -10 10 -10 6 0 10 5 10 10 0 6 -4 10 -10 10 -5 0
-10 -4 -10 -10z"/>
<path d="M3254 3740 c17 -6 36 -5 45 0 11 7 3 9 -29 9 -42 -1 -43 -1 -16 -9z"/>
<path d="M3251 3698 c-1 -22 9 -27 34 -17 19 7 19 8 -2 8 -12 1 -24 7 -26 14
-3 7 -6 6 -6 -5z"/>
<path d="M3196 3643 c-11 -11 -6 -21 14 -26 11 -3 20 -3 20 0 0 10 -28 32 -34
26z"/>
<path d="M3255 3620 c-3 -5 1 -10 10 -10 9 0 13 5 10 10 -3 6 -8 10 -10 10 -2
0 -7 -4 -10 -10z"/>
<path d="M3565 3590 c3 -5 8 -10 11 -10 2 0 4 5 4 10 0 6 -5 10 -11 10 -5 0
-7 -4 -4 -10z"/>
<path d="M3608 3593 c7 -3 16 -2 19 1 4 3 -2 6 -13 5 -11 0 -14 -3 -6 -6z"/>
<path d="M3196 3565 c-4 -12 10 -14 74 -13 107 2 115 22 10 25 -60 1 -80 -2
-84 -12z"/>
<path d="M3153 3443 c15 -2 39 -2 55 0 15 2 2 4 -28 4 -30 0 -43 -2 -27 -4z"/>
<path d="M3538 3403 c7 -3 16 -2 19 1 4 3 -2 6 -13 5 -11 0 -14 -3 -6 -6z"/>
<path d="M3115 3169 c-8 -26 -1 -34 22 -24 11 5 14 9 6 12 -7 2 -9 11 -6 19 3
8 0 14 -5 14 -6 0 -14 -9 -17 -21z"/>
<path d="M3282 2913 c-20 -3 -32 -9 -29 -16 5 -17 68 -21 78 -5 7 10 9 10 9 1
0 -7 9 -13 19 -13 14 0 18 5 14 20 -5 20 -16 22 -91 13z"/>
<path d="M3360 2721 c0 -5 8 -15 18 -22 15 -12 16 -12 5 2 -7 9 -10 19 -6 22
3 4 1 7 -5 7 -7 0 -12 -4 -12 -9z"/>
<path d="M3252 2553 c2 -23 7 -27 28 -24 14 1 34 8 44 13 19 10 19 11 1 24
-10 8 -32 14 -48 14 -25 0 -28 -3 -25 -27z"/>
<path d="M3250 2500 c0 -5 23 -10 50 -10 28 0 50 5 50 10 0 6 -22 10 -50 10
-27 0 -50 -4 -50 -10z"/>
<path d="M3253 2463 c-3 -7 -2 -17 2 -23 8 -13 105 -13 105 0 0 6 -11 10 -25
10 -15 0 -25 6 -25 14 0 17 -50 16 -57 -1z"/>
<path d="M3260 2390 c0 -20 3 -22 38 -15 20 4 45 8 55 7 9 0 17 3 17 9 0 5 -8
9 -17 9 -10 0 -35 3 -55 6 -35 6 -38 5 -38 -16z"/>
<path d="M3260 2300 c0 -7 27 -10 70 -8 38 1 64 6 57 10 -18 12 -127 10 -127
-2z"/>
<path d="M3265 2250 c7 -11 135 -9 135 3 0 4 -32 7 -71 7 -42 0 -68 -4 -64
-10z"/>
<path d="M3273 2178 c2 -38 5 -43 27 -44 14 -1 55 -8 93 -17 37 -8 67 -11 67
-6 0 12 -17 20 -52 24 -40 6 -41 7 -28 40 7 18 15 25 25 21 8 -3 15 -2 15 3 0
5 -9 11 -20 14 -11 3 -20 2 -20 -3 0 -4 -17 -4 -37 1 -69 16 -73 14 -70 -33z"/>
<path d="M3395 2170 c-4 -6 5 -10 19 -10 14 0 26 5 26 10 0 6 -9 10 -19 10
-11 0 -23 -4 -26 -10z"/>
<path d="M4941 5077 c-9 -12 -7 -16 9 -20 21 -5 25 0 11 21 -6 10 -10 10 -20
-1z"/>
<path d="M5137 4923 c-15 -2 -25 -9 -22 -14 9 -14 41 -11 55 6 7 8 9 14 4 14
-5 -1 -21 -4 -37 -6z"/>
<path d="M5050 4899 c0 -5 5 -7 10 -4 6 3 10 8 10 11 0 2 -4 4 -10 4 -5 0 -10
-5 -10 -11z"/>
<path d="M5023 4855 c-32 -27 -28 -36 16 -37 20 -1 40 7 56 22 28 26 33 42 10
34 -8 -4 -15 -13 -15 -21 0 -8 -5 -11 -10 -8 -6 4 -8 10 -5 15 12 20 -28 17
-52 -5z m47 -15 c0 -5 -9 -10 -19 -10 -11 0 -23 5 -26 10 -4 6 5 10 19 10 14
0 26 -4 26 -10z"/>
<path d="M5015 4790 c3 -5 10 -10 16 -10 5 0 9 5 9 10 0 6 -7 10 -16 10 -8 0
-12 -4 -9 -10z"/>
<path d="M5372 5131 c-10 -6 -7 -10 12 -13 16 -3 25 -1 23 5 -5 15 -20 18 -35
8z"/>
<path d="M5275 5090 c4 -6 11 -8 16 -5 14 9 11 15 -7 15 -8 0 -12 -5 -9 -10z"/>
<path d="M5552 5038 c3 -7 19 -13 37 -14 42 -1 35 19 -8 24 -24 2 -32 0 -29
-10z"/>
<path d="M5602 4989 c16 -11 48 -12 48 -1 0 4 -14 7 -31 8 -20 1 -26 -2 -17
-7z"/>
<path d="M5670 4960 c0 -5 5 -10 11 -10 5 0 7 5 4 10 -3 6 -8 10 -11 10 -2 0
-4 -4 -4 -10z"/>
<path d="M5766 4732 c-12 -20 29 -42 77 -40 26 1 47 6 47 10 0 21 -112 49
-124 30z"/>
<path d="M5843 4662 c-36 -4 -43 -21 -18 -42 9 -7 14 -19 11 -25 -5 -15 38
-108 46 -99 4 3 4 -3 1 -14 -5 -21 11 -22 132 -13 l20 2 -20 15 c-13 9 -35 14
-61 11 -40 -3 -41 -3 -39 25 3 34 15 50 15 20 0 -18 6 -22 29 -22 17 0 32 3
34 8 6 9 -28 52 -41 52 -6 0 -8 9 -5 21 5 19 4 20 -16 8 -11 -8 -21 -17 -21
-22 0 -4 -4 -5 -10 -2 -19 11 -10 33 15 39 14 4 23 11 20 16 -4 6 -11 8 -16 5
-5 -4 -9 -2 -9 3 0 13 -27 18 -67 14z m17 -42 c0 -5 -4 -10 -10 -10 -5 0 -10
5 -10 10 0 6 5 10 10 10 6 0 10 -4 10 -10z"/>
<path d="M5907 4429 c7 -25 29 -35 47 -20 7 6 16 8 20 4 4 -4 4 0 1 9 -4 9
-13 14 -20 12 -7 -3 -22 -1 -33 5 -17 9 -19 8 -15 -10z"/>
<path d="M6034 4434 c3 -9 6 -20 6 -25 0 -5 7 -9 15 -9 12 0 13 4 3 25 -12 27
-34 35 -24 9z"/>
<path d="M5990 4427 c0 -19 10 -27 26 -20 11 4 12 9 3 19 -15 18 -29 18 -29 1z"/>
<path d="M3925 5030 c-3 -5 1 -10 9 -10 9 0 16 5 16 10 0 6 -4 10 -9 10 -6 0
-13 -4 -16 -10z"/>
<path d="M4026 4992 c-4 -7 -2 -12 4 -12 7 0 10 -7 6 -15 -5 -13 -2 -13 19 1
30 20 32 28 5 21 -10 -3 -21 0 -23 6 -2 8 -6 7 -11 -1z"/>
<path d="M3928 4983 c7 -3 16 -2 19 1 4 3 -2 6 -13 5 -11 0 -14 -3 -6 -6z"/>
<path d="M3840 4951 c0 -11 31 -24 39 -16 3 3 -1 10 -9 15 -19 12 -30 12 -30
1z"/>
<path d="M3838 4793 c-16 -2 -28 -9 -28 -14 0 -6 -4 -7 -10 -4 -5 3 -10 -1
-10 -9 0 -26 14 -25 50 5 19 15 33 28 30 27 -3 0 -17 -3 -32 -5z"/>
<path d="M3680 4669 c0 -11 27 -12 34 -1 2 4 -4 9 -15 9 -10 1 -19 -2 -19 -8z"/>
<path d="M3638 4613 c6 -2 18 -2 25 0 6 3 1 5 -13 5 -14 0 -19 -2 -12 -5z"/>
<path d="M5565 4679 c-33 -5 -72 -9 -87 -10 -27 -2 -38 -14 -18 -21 8 -2 136
7 193 14 25 3 21 28 -5 27 -13 -1 -50 -5 -83 -10z"/>
<path d="M5725 4589 c-16 -3 -68 -8 -115 -9 -47 -2 -71 -5 -55 -7 17 -3 34
-11 38 -19 9 -16 37 -19 37 -4 0 6 16 10 35 10 24 0 35 -5 35 -15 0 -8 3 -14
8 -14 4 1 18 1 31 0 17 -1 22 -5 17 -17 -4 -11 -2 -15 8 -11 8 3 17 1 20 -6 2
-7 5 4 5 23 1 50 -26 78 -64 69z"/>
<path d="M5535 4519 c-4 -6 -5 -13 -2 -16 7 -7 27 6 27 18 0 12 -17 12 -25 -2z"/>
<path d="M5600 4491 c0 -5 -3 -16 -6 -24 -5 -13 9 -15 99 -12 92 3 104 1 103
-13 0 -9 7 -18 17 -20 9 -2 17 1 17 7 0 6 -4 11 -10 11 -5 0 -7 7 -4 15 5 13
-8 15 -84 15 -67 0 -94 4 -106 15 -17 17 -26 19 -26 6z"/>
<path d="M5533 4453 c8 -17 13 -20 23 -12 17 14 7 38 -16 36 -15 -1 -16 -5 -7
-24z"/>
<path d="M5577 4403 c-3 -15 -2 -35 2 -45 6 -17 8 -17 26 -3 14 12 16 18 7 21
-6 3 -10 10 -6 15 3 5 1 9 -5 9 -6 0 -8 7 -5 15 4 8 2 15 -4 15 -5 0 -12 -12
-15 -27z"/>
<path d="M5680 4190 c0 -5 7 -10 15 -10 9 0 12 -6 9 -15 -4 -8 -1 -15 5 -15 6
0 11 7 11 15 0 8 5 15 10 15 6 0 10 -5 10 -10 0 -15 68 -9 74 7 6 15 -10 27
-18 14 -4 -5 -21 -5 -43 0 -50 11 -73 11 -73 -1z"/>
<path d="M5670 4154 c0 -8 5 -12 10 -9 6 3 10 10 10 16 0 5 -4 9 -10 9 -5 0
-10 -7 -10 -16z"/>
<path d="M5680 4029 c0 -5 5 -7 10 -4 6 3 10 8 10 11 0 2 -4 4 -10 4 -5 0 -10
-5 -10 -11z"/>
<path d="M5680 3859 c0 -5 9 -9 20 -9 11 0 20 4 20 8 0 4 -9 8 -20 9 -11 1
-20 -2 -20 -8z"/>
<path d="M5750 3860 c-11 -7 -5 -10 23 -10 20 0 37 5 37 10 0 13 -40 13 -60 0z"/>
<path d="M5726 3701 c5 -5 27 -6 49 -1 l40 8 -49 1 c-30 1 -46 -3 -40 -8z"/>
<path d="M5765 3670 c3 -5 12 -7 20 -3 21 7 19 13 -6 13 -11 0 -18 -4 -14 -10z"/>
<path d="M5740 3630 c0 -5 5 -10 10 -10 6 0 10 5 10 10 0 6 -4 10 -10 10 -5 0
-10 -4 -10 -10z"/>
<path d="M5778 3513 c6 -2 18 -2 25 0 6 3 1 5 -13 5 -14 0 -19 -2 -12 -5z"/>
<path d="M5715 3430 c-4 -6 6 -10 22 -10 22 0 25 2 13 10 -19 12 -27 12 -35 0z"/>
<path d="M6240 3430 c0 -5 4 -10 9 -10 6 0 13 5 16 10 3 6 -1 10 -9 10 -9 0
-16 -4 -16 -10z"/>
<path d="M6245 3400 c-3 -5 1 -10 9 -10 9 0 16 5 16 10 0 6 -4 10 -9 10 -6 0
-13 -4 -16 -10z"/>
<path d="M5719 3365 c-1 -14 -2 -29 -3 -35 -1 -5 4 -10 9 -10 6 0 10 9 10 19
0 11 3 23 8 27 12 12 8 24 -8 24 -9 0 -16 -10 -16 -25z"/>
<path d="M5770 3370 c0 -5 7 -7 15 -4 8 4 15 8 15 10 0 2 -7 4 -15 4 -8 0 -15
-4 -15 -10z"/>
<path d="M5785 3334 c-18 -14 -18 -14 2 -14 23 0 39 15 26 23 -5 3 -17 -1 -28
-9z"/>
<path d="M5796 3251 c-3 -5 1 -14 9 -21 12 -10 15 -10 15 3 0 19 -16 31 -24
18z"/>
<path d="M5720 3170 c0 -5 7 -7 15 -4 8 4 15 8 15 10 0 2 -7 4 -15 4 -8 0 -15
-4 -15 -10z"/>
<path d="M5780 3171 c0 -5 9 -7 20 -4 11 3 20 7 20 9 0 2 -9 4 -20 4 -11 0
-20 -4 -20 -9z"/>
<path d="M5745 2850 c-3 -5 -1 -10 4 -10 6 0 11 5 11 10 0 6 -2 10 -4 10 -3 0
-8 -4 -11 -10z"/>
<path d="M5640 2620 c0 -13 11 -13 30 0 12 8 11 10 -7 10 -13 0 -23 -4 -23
-10z"/>
<path d="M4715 4470 c3 -5 16 -10 28 -9 21 0 21 1 2 9 -28 12 -37 12 -30 0z"/>
<path d="M4664 4389 c-4 -8 1 -9 16 -4 19 6 21 5 11 -13 -6 -11 -17 -27 -23
-34 -15 -16 -70 -128 -88 -178 -6 -19 -16 -44 -21 -55 -16 -39 -47 -140 -52
-170 -2 -16 -7 -37 -10 -45 -4 -8 -9 -31 -11 -50 -2 -19 -9 -60 -15 -90 -15
-79 -31 -302 -22 -319 12 -20 19 6 26 96 8 97 10 104 30 97 10 -4 12 -10 6
-18 -12 -15 -34 -163 -27 -182 4 -11 18 -14 48 -12 49 3 46 -10 34 152 -4 66
-8 80 -23 82 -9 2 -23 -2 -30 -8 -23 -19 -26 18 -8 119 9 54 19 112 21 128 10
80 44 195 84 280 15 33 40 87 55 120 15 33 36 72 47 88 l19 27 -30 0 c-16 0
-33 -5 -37 -11z"/>
<path d="M4300 4322 c0 -5 7 -9 15 -9 8 0 15 4 15 9 0 4 -7 8 -15 8 -8 0 -15
-4 -15 -8z"/>
<path d="M4450 4315 c0 -8 5 -15 10 -15 6 0 10 7 10 15 0 8 -4 15 -10 15 -5 0
-10 -7 -10 -15z"/>
<path d="M4838 4323 c7 -3 16 -2 19 1 4 3 -2 6 -13 5 -11 0 -14 -3 -6 -6z"/>
<path d="M4738 4273 c7 -3 16 -2 19 1 4 3 -2 6 -13 5 -11 0 -14 -3 -6 -6z"/>
<path d="M4818 4268 c9 -9 15 -9 24 0 9 9 7 12 -12 12 -19 0 -21 -3 -12 -12z"/>
<path d="M4335 4250 c3 -5 8 -10 11 -10 2 0 4 5 4 10 0 6 -5 10 -11 10 -5 0
-7 -4 -4 -10z"/>
<path d="M4498 4203 c7 -3 16 -2 19 1 4 3 -2 6 -13 5 -11 0 -14 -3 -6 -6z"/>
<path d="M4783 4117 c9 -8 28 -12 42 -9 30 5 34 22 5 22 -11 0 -20 -5 -20 -10
0 -7 -7 -7 -22 0 -21 10 -21 10 -5 -3z"/>
<path d="M4188 4053 c7 -3 16 -2 19 1 4 3 -2 6 -13 5 -11 0 -14 -3 -6 -6z"/>
<path d="M4100 4019 c0 -5 5 -7 10 -4 6 3 10 8 10 11 0 2 -4 4 -10 4 -5 0 -10
-5 -10 -11z"/>
<path d="M4165 3990 c-27 -7 -25 -8 17 -9 26 0 50 4 53 9 7 11 -25 11 -70 0z"/>
<path d="M4320 3950 c0 -5 5 -10 11 -10 5 0 7 5 4 10 -3 6 -8 10 -11 10 -2 0
-4 -4 -4 -10z"/>
<path d="M4100 3909 c-42 -6 -40 -6 18 -6 34 0 62 3 62 8 0 8 -6 8 -80 -2z"/>
<path d="M4247 3913 c-4 -3 -7 -11 -7 -17 0 -6 5 -5 12 2 6 6 9 14 7 17 -3 3
-9 2 -12 -2z"/>
<path d="M4340 3890 c0 -5 5 -10 11 -10 5 0 7 5 4 10 -3 6 -8 10 -11 10 -2 0
-4 -4 -4 -10z"/>
<path d="M4120 3863 c8 -3 19 -11 23 -17 6 -7 7 -6 4 4 -2 8 -12 16 -23 17
-13 2 -15 1 -4 -4z"/>
<path d="M4221 3821 c-20 -13 -1 -17 49 -10 27 3 34 7 18 7 -14 1 -32 4 -40 7
-7 3 -19 1 -27 -4z"/>
<path d="M4050 3750 c-12 -8 -11 -10 8 -10 12 0 22 5 22 10 0 13 -11 13 -30 0z"/>
<path d="M4170 3750 c0 -5 5 -10 10 -10 6 0 10 5 10 10 0 6 -4 10 -10 10 -5 0
-10 -4 -10 -10z"/>
<path d="M3995 3699 c-27 -3 -38 -7 -23 -7 14 -1 32 -4 40 -7 13 -5 47 11 38
17 -3 2 -27 1 -55 -3z"/>
<path d="M4526 3689 c-19 -19 -19 -19 7 -19 17 0 27 5 27 14 0 23 -13 25 -34
5z"/>
<path d="M3968 3668 c9 -9 15 -9 24 0 9 9 7 12 -12 12 -19 0 -21 -3 -12 -12z"/>
<path d="M4688 3483 c-28 -31 -23 -53 12 -53 23 0 30 4 30 20 0 11 -4 20 -9
20 -5 0 -11 7 -13 16 -3 14 -5 14 -20 -3z"/>
<path d="M4000 4120 c0 -5 5 -10 11 -10 5 0 7 5 4 10 -3 6 -8 10 -11 10 -2 0
-4 -4 -4 -10z"/>
<path d="M3958 4113 c7 -3 16 -2 19 1 4 3 -2 6 -13 5 -11 0 -14 -3 -6 -6z"/>
<path d="M3910 3960 c0 -5 5 -10 11 -10 5 0 7 5 4 10 -3 6 -8 10 -11 10 -2 0
-4 -4 -4 -10z"/>
<path d="M3940 3960 c0 -5 5 -10 11 -10 5 0 7 5 4 10 -3 6 -8 10 -11 10 -2 0
-4 -4 -4 -10z"/>
<path d="M3850 3920 c-12 -8 -11 -10 8 -10 12 0 22 5 22 10 0 13 -11 13 -30 0z"/>
<path d="M3850 3780 c0 -11 4 -20 9 -20 5 0 7 9 4 20 -3 11 -7 20 -9 20 -2 0
-4 -9 -4 -20z"/>
<path d="M3810 3779 c0 -5 5 -7 10 -4 6 3 10 8 10 11 0 2 -4 4 -10 4 -5 0 -10
-5 -10 -11z"/>
<path d="M4986 4208 c3 -4 11 -8 18 -8 8 0 16 -10 20 -22 3 -15 9 -19 15 -13
6 6 8 20 5 32 -5 16 -13 21 -35 21 -15 -1 -26 -5 -23 -10z"/>
<path d="M5060 4206 c0 -2 7 -6 15 -10 8 -3 15 -1 15 4 0 6 -7 10 -15 10 -8 0
-15 -2 -15 -4z"/>
<path d="M4985 4180 c-3 -5 -1 -10 4 -10 6 0 11 5 11 10 0 6 -2 10 -4 10 -3 0
-8 -4 -11 -10z"/>
<path d="M5105 4150 c-3 -5 -1 -10 4 -10 6 0 11 5 11 10 0 6 -2 10 -4 10 -3 0
-8 -4 -11 -10z"/>
<path d="M5145 4150 c-3 -5 -1 -10 4 -10 6 0 11 5 11 10 0 6 -2 10 -4 10 -3 0
-8 -4 -11 -10z"/>
<path d="M4988 4133 c6 -2 18 -2 25 0 6 3 1 5 -13 5 -14 0 -19 -2 -12 -5z"/>
<path d="M5310 3865 c0 -9 5 -15 11 -13 6 2 11 8 11 13 0 5 -5 11 -11 13 -6 2
-11 -4 -11 -13z"/>
<path d="M5405 3870 c-3 -5 -1 -10 4 -10 6 0 11 5 11 10 0 6 -2 10 -4 10 -3 0
-8 -4 -11 -10z"/>
<path d="M5025 3750 c-3 -5 -2 -10 4 -10 5 0 13 5 16 10 3 6 2 10 -4 10 -5 0
-13 -4 -16 -10z"/>
<path d="M5020 3710 c0 -5 5 -10 10 -10 6 0 10 5 10 10 0 6 -4 10 -10 10 -5 0
-10 -4 -10 -10z"/>
<path d="M5405 3710 c3 -5 11 -10 16 -10 6 0 7 5 4 10 -3 6 -11 10 -16 10 -6
0 -7 -4 -4 -10z"/>
<path d="M5506 3686 c3 -9 11 -16 16 -16 13 0 5 23 -10 28 -7 2 -10 -2 -6 -12z"/>
<path d="M5020 3670 c0 -5 5 -10 10 -10 6 0 10 5 10 10 0 6 -4 10 -10 10 -5 0
-10 -4 -10 -10z"/>
<path d="M5120 3670 c-13 -8 -12 -10 3 -10 9 0 17 5 17 10 0 12 -1 12 -20 0z"/>
<path d="M5500 3650 c0 -5 12 -10 28 -10 21 0 24 2 12 10 -20 13 -40 13 -40 0z"/>
<path d="M5163 3633 c9 -2 23 -2 30 0 6 3 -1 5 -18 5 -16 0 -22 -2 -12 -5z"/>
<path d="M5356 3516 c4 -17 0 -27 -13 -35 -17 -10 -16 -10 5 -11 12 0 22 -4
22 -9 0 -5 -10 -16 -22 -24 l-23 -16 32 0 c17 -1 37 -3 45 -6 7 -3 20 -1 28 5
12 7 12 12 2 22 -20 20 -14 28 23 28 19 0 35 4 35 9 0 5 -9 7 -20 4 -11 -3
-34 0 -50 7 -31 13 -40 29 -17 31 14 1 -22 17 -41 18 -8 1 -10 -7 -6 -23z"/>
<path d="M5130 3514 c0 -9 7 -14 17 -12 25 5 28 28 4 28 -12 0 -21 -6 -21 -16z"/>
<path d="M5220 3470 c0 -5 5 -10 10 -10 6 0 10 5 10 10 0 6 -4 10 -10 10 -5 0
-10 -4 -10 -10z"/>
<path d="M5532 3440 c-12 -5 -30 -7 -40 -3 -13 5 -14 3 -5 -7 12 -13 73 -5 73
11 0 5 -1 9 -2 8 -2 0 -13 -4 -26 -9z"/>
<path d="M5503 3403 c-22 -8 -14 -23 12 -23 14 0 25 4 25 9 0 11 -21 19 -37
14z"/>
<path d="M5218 3373 c7 -3 16 -2 19 1 4 3 -2 6 -13 5 -11 0 -14 -3 -6 -6z"/>
<path d="M5491 3361 c-12 -8 -9 -11 12 -17 32 -7 49 3 27 16 -19 12 -21 12
-39 1z"/>
<path d="M2440 2975 c-10 -12 -16 -13 -26 -4 -11 9 -14 7 -14 -12 0 -23 3 -24
58 -22 83 2 82 2 82 14 0 7 -10 9 -24 5 -19 -5 -26 -1 -31 14 -8 24 -28 26
-45 5z"/>
<path d="M2415 2900 c3 -5 8 -10 11 -10 2 0 4 5 4 10 0 6 -5 10 -11 10 -5 0
-7 -4 -4 -10z"/>
<path d="M2485 2900 c3 -5 8 -10 11 -10 2 0 4 5 4 10 0 6 -5 10 -11 10 -5 0
-7 -4 -4 -10z"/>
<path d="M2350 2896 c0 -9 40 -13 46 -5 3 5 -6 9 -20 9 -14 0 -26 -2 -26 -4z"/>
<path d="M2441 2861 c-10 -6 -10 -10 -1 -16 13 -8 24 -1 19 14 -3 6 -10 7 -18
2z"/>
<path d="M2290 2820 c0 -11 135 -8 147 3 3 4 -28 7 -70 7 -45 0 -77 -4 -77
-10z"/>
<path d="M2284 2775 c22 -17 40 -20 32 -6 -3 5 -16 11 -28 14 -22 6 -22 5 -4
-8z"/>
<path d="M2350 2780 c-8 -5 -11 -13 -6 -17 5 -4 11 -3 13 4 2 7 10 10 18 7 7
-3 16 -1 20 5 8 13 -24 14 -45 1z"/>
<path d="M3038 3663 c-51 -6 -49 -23 2 -23 29 0 40 4 40 15 0 8 -1 14 -2 13
-2 -1 -20 -3 -40 -5z"/>
<path d="M3017 3602 c-9 -2 -15 -8 -11 -13 3 -5 10 -7 15 -3 5 3 16 0 24 -6
12 -10 15 -9 15 3 0 17 -17 25 -43 19z"/>
<path d="M2950 3544 c0 -13 3 -15 11 -7 8 8 19 9 37 2 13 -5 27 -7 30 -4 9 8
-1 13 -40 20 -33 6 -38 5 -38 -11z"/>
<path d="M2993 3503 c-20 -8 -15 -23 7 -23 11 0 20 7 20 15 0 15 -6 17 -27 8z"/>
<path d="M2925 3490 c4 -6 11 -8 16 -5 14 9 11 15 -7 15 -8 0 -12 -5 -9 -10z"/>
<path d="M2910 3450 c0 -5 7 -10 16 -10 8 0 12 5 9 10 -3 6 -10 10 -16 10 -5
0 -9 -4 -9 -10z"/>
<path d="M2872 3334 c-18 -19 -15 -22 16 -17 15 2 42 5 61 5 24 0 30 3 19 9
-26 15 -83 16 -96 3z"/>
<path d="M2918 3273 c7 -3 16 -2 19 1 4 3 -2 6 -13 5 -11 0 -14 -3 -6 -6z"/>
<path d="M2806 3231 c-3 -5 8 -11 24 -13 32 -5 41 6 14 16 -22 8 -32 8 -38 -3z"/>
<path d="M2888 3223 c7 -3 16 -2 19 1 4 3 -2 6 -13 5 -11 0 -14 -3 -6 -6z"/>
<path d="M2928 3223 c7 -3 16 -2 19 1 4 3 -2 6 -13 5 -11 0 -14 -3 -6 -6z"/>
<path d="M2798 3183 c7 -3 16 -2 19 1 4 3 -2 6 -13 5 -11 0 -14 -3 -6 -6z"/>
<path d="M2675 3019 c-11 -16 -2 -17 25 -2 24 12 24 13 3 13 -12 0 -25 -5 -28
-11z"/>
<path d="M2650 2919 c0 -7 -10 -9 -25 -7 -14 3 -28 1 -31 -4 -4 -5 10 -8 32
-6 20 2 39 9 42 16 2 6 -1 12 -7 12 -6 0 -11 -5 -11 -11z"/>
<path d="M2688 2903 c7 -3 16 -2 19 1 4 3 -2 6 -13 5 -11 0 -14 -3 -6 -6z"/>
<path d="M5943 3063 c9 -2 25 -2 35 0 9 3 1 5 -18 5 -19 0 -27 -2 -17 -5z"/>
<path d="M6023 3063 c9 -2 23 -2 30 0 6 3 -1 5 -18 5 -16 0 -22 -2 -12 -5z"/>
<path d="M5980 2882 c0 -4 16 -6 35 -4 19 2 35 6 35 8 0 2 -16 4 -35 4 -19 0
-35 -4 -35 -8z"/>
<path d="M6030 2590 l-25 -8 27 -1 c15 -1 30 4 33 9 7 11 0 11 -35 0z"/>
<path d="M5898 2273 c7 -3 16 -2 19 1 4 3 -2 6 -13 5 -11 0 -14 -3 -6 -6z"/>
<path d="M4250 2652 c0 -10 33 -42 43 -42 15 0 5 19 -18 34 -14 9 -25 13 -25
8z"/>
<path d="M4460 2570 c0 -5 9 -10 19 -10 11 0 23 5 26 10 4 6 -5 10 -19 10 -14
0 -26 -4 -26 -10z"/>
<path d="M4447 2003 c-11 -10 -8 -43 3 -43 6 0 10 4 10 9 0 5 3 16 6 25 6 16
-7 22 -19 9z"/>
<path d="M4018 1714 c15 -29 81 -87 136 -119 64 -38 66 -27 3 15 -28 19 -74
55 -101 80 -27 25 -44 36 -38 24z"/>
<path d="M4623 1595 c-9 -15 -14 -17 -25 -7 -12 9 -28 8 -74 -7 -32 -11 -77
-23 -99 -27 -25 -5 -32 -9 -20 -11 11 -2 54 5 95 16 53 13 80 16 94 9 21 -12
51 11 44 33 -3 10 -8 8 -15 -6z"/>
<path d="M4535 2880 c28 -12 47 -12 40 0 -3 6 -18 10 -33 9 -24 0 -25 -1 -7
-9z"/>
<path d="M4680 2680 c0 -6 34 -10 81 -10 51 0 78 4 74 10 -3 6 -40 10 -81 10
-43 0 -74 -4 -74 -10z"/>
<path d="M2365 2640 c-3 -5 3 -10 14 -10 12 0 21 5 21 10 0 6 -6 10 -14 10 -8
0 -18 -4 -21 -10z"/>
<path d="M2280 2600 c0 -21 9 -23 50 -10 l25 8 -27 1 c-16 1 -28 6 -28 11 0 6
-4 10 -10 10 -5 0 -10 -9 -10 -20z"/>
<path d="M2365 2590 c4 -6 11 -8 16 -5 14 9 11 15 -7 15 -8 0 -12 -5 -9 -10z"/>
<path d="M2345 2520 c-3 -5 -1 -10 4 -10 6 0 11 5 11 10 0 6 -2 10 -4 10 -3 0
-8 -4 -11 -10z"/>
<path d="M2105 2410 c-3 -5 1 -10 9 -10 9 0 16 5 16 10 0 6 -4 10 -9 10 -6 0
-13 -4 -16 -10z"/>
<path d="M2320 2281 c0 -10 19 -25 25 -20 1 2 -3 10 -11 17 -8 7 -14 8 -14 3z"/>
<path d="M2280 2270 c8 -5 20 -10 25 -10 6 0 3 5 -5 10 -8 5 -19 10 -25 10 -5
0 -3 -5 5 -10z"/>
<path d="M5148 2333 c6 -2 18 -2 25 0 6 3 1 5 -13 5 -14 0 -19 -2 -12 -5z"/>
<path d="M5070 2300 c0 -5 5 -10 11 -10 5 0 7 5 4 10 -3 6 -8 10 -11 10 -2 0
-4 -4 -4 -10z"/>
<path d="M6415 1030 c-4 -6 7 -10 27 -10 25 0 29 3 18 10 -19 13 -37 13 -45 0z"/>
<path d="M3607 1442 c-9 -2 -17 -8 -17 -14 0 -5 12 -7 29 -3 20 4 34 1 45 -10
9 -9 16 -12 16 -6 0 6 7 11 16 11 8 0 13 4 10 9 -6 10 -71 18 -99 13z"/>
<path d="M4727 1323 c-4 -3 -7 -11 -7 -17 0 -6 5 -5 12 2 6 6 9 14 7 17 -3 3
-9 2 -12 -2z"/>
<path d="M4678 1203 c7 -3 16 -2 19 1 4 3 -2 6 -13 5 -11 0 -14 -3 -6 -6z"/>
<path d="M4620 1169 c0 -5 5 -7 10 -4 6 3 10 8 10 11 0 2 -4 4 -10 4 -5 0 -10
-5 -10 -11z"/>
<path d="M5070 1130 c0 -5 5 -10 10 -10 6 0 10 5 10 10 0 6 -4 10 -10 10 -5 0
-10 -4 -10 -10z"/>
<path d="M4823 1103 c9 -2 23 -2 30 0 6 3 -1 5 -18 5 -16 0 -22 -2 -12 -5z"/>
<path d="M4988 1103 c7 -3 16 -2 19 1 4 3 -2 6 -13 5 -11 0 -14 -3 -6 -6z"/>
<path d="M5068 1068 c9 -9 15 -9 24 0 9 9 7 12 -12 12 -19 0 -21 -3 -12 -12z"/>
<path d="M4738 1033 c6 -2 18 -2 25 0 6 3 1 5 -13 5 -14 0 -19 -2 -12 -5z"/>
<path d="M4806 1028 c7 -11 164 -10 164 1 0 6 -38 9 -84 8 -47 0 -82 -5 -80
-9z"/>
<path d="M5000 1030 c-18 -12 -2 -12 25 0 13 6 15 9 5 9 -8 0 -22 -4 -30 -9z"/>
<path d="M5068 1033 c7 -3 16 -2 19 1 4 3 -2 6 -13 5 -11 0 -14 -3 -6 -6z"/>
<path d="M4148 1013 c7 -3 16 -2 19 1 4 3 -2 6 -13 5 -11 0 -14 -3 -6 -6z"/>
<path d="M4901 951 c-9 -6 -5 -8 13 -8 14 0 26 3 26 8 0 11 -21 11 -39 0z"/>
<path d="M4850 939 c0 -5 5 -7 10 -4 6 3 10 8 10 11 0 2 -4 4 -10 4 -5 0 -10
-5 -10 -11z"/>
<path d="M3876 780 c4 -19 11 -39 16 -45 5 -5 6 5 2 25 -4 19 -11 39 -16 45
-5 5 -6 -5 -2 -25z"/>
<path d="M3892 700 c0 -14 2 -19 5 -12 2 6 2 18 0 25 -3 6 -5 1 -5 -13z"/>
<path d="M3882 658 c-13 -16 22 -78 44 -78 17 0 19 16 3 26 -6 3 -17 20 -23
36 -10 23 -15 26 -24 16z"/>
<path d="M5292 518 c-43 -105 -46 -118 -29 -118 14 0 57 95 73 163 13 54 -15
26 -44 -45z"/>
<path d="M2640 460 c0 -20 24 -60 37 -60 17 0 16 4 -2 40 -15 29 -35 40 -35
20z"/>
</g>
</svg>
